<svg version="1.1" id="Layer_1" xmlns="http://www.w3.org/2000/svg" xmlns:xlink="http://www.w3.org/1999/xlink" x="0px" y="0px"
	 width="100%" viewBox="0 0 896 896" enable-background="new 0 0 896 896" xml:space="preserve">
<path fill="#000000" opacity="1.000000" stroke="none" 
	d="
M623.361145,53.538078 
	C657.217346,68.577446 688.330383,87.440239 717.073059,110.185913 
	C745.019470,132.301453 769.758545,157.587799 791.477722,185.849533 
	C810.633972,210.776459 826.785278,237.520309 840.116943,265.967041 
	C843.575867,273.347717 846.529663,280.963959 849.903564,288.386444 
	C851.244080,291.335480 851.928162,293.774841 848.748291,294.736664 
	C859.776306,305.714508 861.131042,320.697937 865.064209,334.268860 
	C873.182068,362.277832 877.715515,390.972961 879.401489,420.149048 
	C880.893799,445.973724 880.335571,471.656677 877.458862,497.377167 
	C871.487366,550.767090 855.775635,601.085022 830.844727,648.581543 
	C819.131226,670.897095 805.522888,692.036438 789.979614,711.860596 
	C786.250122,716.617249 781.432617,720.953186 778.003601,725.643860 
	C772.097656,733.722656 765.304810,740.830200 758.471924,747.893860 
	C716.328796,791.461304 667.069519,824.622070 610.921875,847.455444 
	C574.337769,862.332947 536.416199,872.079346 497.103424,876.227173 
	C478.888123,878.148987 460.627960,879.591187 442.301880,879.008362 
	C418.850159,878.262573 395.518585,876.062622 372.396667,871.961304 
	C369.668304,871.477356 366.781494,871.046692 365.277100,868.026428 
	C364.667511,866.802490 362.971130,865.674255 361.965881,866.720520 
	C357.424011,871.447510 352.626282,867.871399 348.439423,866.847168 
	C321.226685,860.190308 294.756378,851.281494 269.352417,839.335876 
	C239.578781,825.335571 211.491440,808.626953 185.505051,788.367065 
	C155.935654,765.313904 129.776978,738.934570 107.051231,709.141663 
	C102.407677,703.054077 98.080482,696.726074 93.530853,690.565491 
	C92.061073,688.575317 91.264137,686.794922 95.462616,684.554810 
	C89.823204,684.744507 87.873070,682.113342 85.943886,679.072205 
	C60.473225,638.919861 42.049377,595.761536 30.766476,549.587708 
	C24.952860,525.796143 21.309963,501.670410 19.654749,477.193726 
	C18.190096,455.535034 18.199541,433.899078 19.973976,412.326874 
	C22.487919,381.764465 28.100578,351.709564 37.269501,322.389038 
	C39.551262,315.092346 42.135719,307.890686 44.457886,300.606079 
	C45.673172,296.793732 47.384666,296.633118 50.057770,299.330261 
	C53.425274,302.727966 56.925022,305.994629 60.834797,309.768738 
	C62.115345,306.699982 62.081696,304.701996 59.843861,303.020721 
	C59.178555,302.520874 58.552326,301.967896 57.920166,301.425293 
	C50.082085,294.697784 50.010788,294.254211 55.787510,285.942719 
	C48.762531,282.951050 53.271263,278.813141 54.904839,275.048615 
	C66.008263,249.461014 79.536247,225.225082 95.506607,202.341843 
	C97.547493,199.417557 99.614418,197.162643 104.721092,197.813766 
	C100.935776,194.744370 102.196930,192.715195 104.075264,190.230118 
	C135.218002,149.027420 172.366913,114.285347 215.646606,86.099449 
	C241.425598,69.310860 268.585297,55.072285 297.675873,45.164162 
	C303.609802,43.143097 309.402374,40.803528 315.300751,38.689526 
	C339.333710,30.076052 364.234161,24.836637 389.420502,21.077009 
	C402.569763,19.114182 415.860748,18.120377 429.155945,17.379137 
	C431.292084,17.260040 431.832611,18.856840 433.172485,19.767700 
	C435.181335,17.280994 437.811798,16.887815 440.777588,16.760275 
	C457.629852,16.035568 474.365417,17.965790 491.140289,18.889769 
	C493.932373,19.043558 497.220337,18.872841 499.361115,21.635090 
	C499.705475,22.079432 500.590179,22.542410 501.041138,22.402761 
	C512.156860,18.960340 522.684021,23.375715 533.209900,25.315870 
	C564.231445,31.033876 594.111450,40.727310 623.361145,53.538078 
M327.134857,59.609859 
	C305.896759,66.546593 285.183655,74.765991 265.349030,85.094231 
	C262.070343,86.801498 259.404388,87.353592 255.723892,85.252625 
	C249.225037,81.542824 245.070099,84.120735 245.382950,91.408211 
	C245.576111,95.908051 242.829636,97.444153 239.782761,99.258324 
	C212.917740,115.254372 188.461853,134.418427 165.926727,156.024429 
	C153.174957,168.250458 141.444336,181.442947 130.495590,195.323853 
	C112.996185,217.509705 97.746407,241.114548 85.232002,266.472961 
	C72.319122,292.638855 61.910980,319.723206 54.927639,348.090302 
	C51.188869,363.277527 48.317036,378.617554 46.165535,394.110626 
	C44.102066,408.969788 43.704128,423.929535 42.708340,438.863129 
	C41.849178,451.747833 43.343937,464.471100 43.673908,477.258881 
	C43.787373,481.656097 44.017391,486.194611 44.677391,490.657257 
	C45.736965,497.821533 48.735256,505.509918 41.200439,511.315399 
	C41.083298,511.405579 41.275940,511.897858 41.324661,512.206604 
	C47.337402,509.659637 46.866970,509.765594 48.465904,516.864990 
	C50.362228,525.284790 51.116745,533.864563 53.487617,542.262390 
	C57.554630,556.668091 61.431953,571.117554 66.479874,585.213745 
	C67.437691,587.888428 67.060478,589.931885 64.689362,592.416565 
	C69.029854,591.261169 69.712463,593.995483 70.656715,596.227600 
	C73.247215,602.351196 75.766823,608.505127 78.272156,614.664307 
	C83.847168,628.369934 92.571411,640.598511 97.082184,654.800720 
	C97.500839,656.118896 98.054893,657.322510 99.486626,657.769226 
	C101.820366,658.497559 102.699532,660.572510 103.789856,662.406067 
	C111.278748,675.000488 120.099037,686.646790 128.903748,698.327576 
	C132.076492,702.536682 136.928757,705.902893 137.127686,710.572632 
	C151.705414,723.434082 162.966385,738.298462 177.053909,750.272644 
	C191.399612,762.466309 206.116074,774.103516 221.470993,785.025452 
	C236.521484,795.730957 252.722839,804.281067 269.013763,812.755127 
	C285.527618,821.345215 302.994629,827.764343 320.757050,834.209900 
	C318.484314,837.495667 315.370758,835.151001 313.140839,837.263977 
	C317.466125,838.929932 321.540283,839.635254 325.884583,839.162842 
	C329.842651,838.732422 333.828247,838.216309 337.791809,839.291382 
	C345.653931,841.424072 353.561035,843.360840 361.490265,845.244385 
	C384.236938,850.647949 407.361542,853.482727 430.608398,854.523254 
	C466.482758,856.128845 502.117401,853.432495 537.220886,845.343872 
	C538.534485,845.041138 539.837280,844.586609 540.731873,846.090210 
	C537.023621,858.233337 537.023621,858.233337 538.976440,861.396973 
	C541.616394,859.431213 544.236755,860.555908 547.176575,862.472168 
	C544.927612,856.888000 544.977051,856.916077 547.845825,851.864868 
	C548.826294,850.138550 549.504761,848.238708 550.294556,846.406616 
	C551.621948,843.327515 553.706177,841.345642 557.109802,840.410889 
	C584.971436,832.758789 611.757996,822.379883 637.363647,808.916626 
	C662.472595,795.714600 686.025269,780.220093 707.988403,762.275513 
	C720.254395,752.253784 731.927734,741.554749 742.854614,730.132874 
	C760.729187,711.448364 776.909424,691.343933 790.821106,669.493103 
	C792.228638,667.282227 794.041748,665.764404 795.655090,664.366638 
	C804.421448,646.636902 814.516296,629.590027 822.351929,611.414246 
	C830.240906,593.114685 836.626892,574.286865 842.249329,555.602844 
	C845.341736,554.931335 847.142822,558.055481 849.794922,556.226440 
	C850.203735,554.095337 849.224854,552.209167 847.480652,551.269409 
	C844.018738,549.404236 844.262573,546.670593 844.953308,543.599792 
	C846.339233,537.437927 847.783569,531.287231 849.040710,525.098816 
	C852.419556,508.466705 854.849976,491.645416 855.562561,474.729828 
	C856.140991,461.001038 856.625427,447.240143 856.082764,433.424408 
	C855.322815,414.080963 853.279175,394.966705 850.178162,375.894897 
	C849.473572,371.561340 846.868896,367.158203 849.921692,362.417816 
	C850.766235,361.106384 850.658569,357.761200 848.482117,356.618988 
	C845.813110,355.218262 845.359253,352.913025 844.779968,350.511932 
	C841.541199,337.087036 837.431946,323.925507 832.735962,310.948029 
	C808.538330,244.077148 769.724426,187.163605 716.035828,140.526947 
	C659.389221,91.320938 593.941040,60.406391 520.117432,47.181225 
	C512.684387,45.849613 505.197205,44.819557 498.130280,43.711514 
	C496.967926,41.148346 499.774200,40.651424 499.530518,38.226540 
	C496.660370,42.335106 493.197357,43.884399 488.625397,43.177429 
	C484.526520,42.543621 480.356415,42.343090 476.211212,42.040810 
	C448.561432,40.024517 421.027222,41.271149 393.542389,44.720196 
	C386.943573,45.548271 380.383972,48.623810 373.470184,45.717224 
	C372.707275,47.460114 371.471619,48.665794 369.499512,48.996262 
	C355.360504,51.365574 341.653809,55.466633 327.134857,59.609859 
M811.040894,247.615921 
	C812.235168,247.090607 813.844299,246.642944 813.215088,244.948990 
	C812.683960,243.519333 811.262634,242.629608 809.655823,242.787659 
	C808.399048,242.911301 807.625488,243.944397 807.534302,245.186722 
	C807.390442,247.146210 808.671326,247.716843 811.040894,247.615921 
M863.042847,345.736237 
	C863.096130,342.370728 861.645081,340.224274 857.846802,339.372925 
	C857.834595,343.137451 858.676331,345.739685 863.042847,345.736237 
z"/>
<path fill="#000000" opacity="1.000000" stroke="none" 
	d="
M633.030029,643.983704 
	C624.636108,649.219543 615.836121,650.929749 606.395813,647.042358 
	C604.728210,646.355652 602.619629,646.033020 602.214355,643.913574 
	C601.784851,641.667297 603.818665,640.808960 605.253967,639.785278 
	C616.607605,631.688171 620.937317,620.293945 621.989319,606.765198 
	C623.229919,590.811401 624.138306,574.879944 623.741516,558.884583 
	C623.686829,556.679749 624.625916,553.639893 621.529907,552.959229 
	C617.726074,552.123108 613.880066,550.142273 609.874878,551.783325 
	C608.363831,552.402466 608.410461,554.243958 608.130432,555.719055 
	C603.618225,579.485901 595.064575,602.137329 588.779236,625.418762 
	C585.113953,638.995361 578.600891,642.506775 564.558899,639.842590 
	C560.339722,639.042053 556.233643,637.465149 552.200134,635.919434 
	C548.663208,634.563965 548.214966,632.198181 550.902954,629.390381 
	C552.887573,627.317383 555.115845,625.523010 557.809082,624.549744 
	C563.141541,622.622803 567.082825,618.760132 571.176086,615.146484 
	C575.336609,611.473450 574.995789,606.041870 575.623230,601.251770 
	C577.544189,586.585022 579.162170,571.870728 580.469849,557.136902 
	C580.801025,553.405518 583.275635,548.256470 576.762329,546.434387 
	C575.917419,546.198181 575.540283,544.289490 574.626892,542.545227 
	C568.514954,550.527893 559.785217,547.036072 552.280273,547.799927 
	C534.184509,549.641907 516.277771,552.124695 498.829956,557.303711 
	C493.435547,558.904968 487.992706,560.450989 482.908264,563.058533 
	C480.198029,564.448486 479.428864,565.970764 480.105438,568.966431 
	C483.654266,584.679688 485.941254,600.659729 490.406097,616.187317 
	C493.494934,626.929443 488.712921,636.159729 483.486786,644.896606 
	C481.392456,648.397888 476.885529,649.272278 472.757324,649.221069 
	C466.076569,649.138245 459.533936,647.940002 453.101379,646.174500 
	C450.956329,645.585693 448.769104,644.643066 448.467957,642.192017 
	C448.172180,639.784302 450.024597,638.246704 451.849884,637.024963 
	C455.429932,634.628662 459.292023,632.680420 461.501038,628.609375 
	C464.846710,622.443542 465.170532,615.538086 466.694672,608.929871 
	C469.055817,598.692444 467.071472,588.675659 465.129547,578.623718 
	C464.322113,574.443970 462.622101,573.380310 459.127045,575.825500 
	C449.851746,582.314758 440.385620,588.565430 431.464294,595.513062 
	C426.323456,599.516602 426.306396,606.071838 426.423553,612.031982 
	C426.476685,614.736755 426.313049,616.841309 424.252960,618.711914 
	C422.209991,620.566956 422.022003,623.138855 422.278503,625.669495 
	C422.801697,630.830872 420.231689,633.192322 415.448090,634.349243 
	C405.201019,636.827637 395.050415,636.931885 384.857819,634.179810 
	C378.428558,632.443787 377.822845,631.184937 380.833160,625.223999 
	C381.192993,624.511475 381.530548,623.787598 382.384186,622.024536 
	C343.920288,637.061523 305.356873,645.948669 264.236420,640.888916 
	C264.667511,643.539917 266.234314,644.539490 267.446747,645.688721 
	C290.727203,667.756348 317.575684,684.278076 347.033081,696.704712 
	C367.379150,705.287720 388.553009,710.986938 410.392792,714.034302 
	C433.872437,717.310364 457.430664,718.227417 481.009094,714.871155 
	C485.824921,714.185669 490.225220,713.986206 492.304504,719.793396 
	C492.937561,721.561523 493.362793,722.892578 491.820160,724.243958 
	C491.445465,724.572205 490.863098,724.915527 490.804291,725.314941 
	C489.612030,733.411316 482.956757,732.571838 477.565582,733.037537 
	C457.636261,734.759094 437.726227,734.829651 417.783997,732.492493 
	C400.882477,730.511719 384.319031,727.267395 368.011688,722.423157 
	C341.243256,714.471436 316.180725,702.909668 292.820435,687.636963 
	C288.938049,685.098633 284.308228,683.131409 281.453033,679.708252 
	C274.626770,671.523926 264.577850,667.666321 257.212738,660.192871 
	C249.738251,652.608398 242.007553,645.253479 234.868164,637.350952 
	C232.382309,634.599365 229.551956,632.951355 226.241287,631.773865 
	C213.154739,627.119690 200.781281,621.035645 189.360825,613.114075 
	C186.823944,611.354431 184.860474,611.220398 183.057816,613.871643 
	C176.197510,623.961121 165.647385,629.750366 155.958069,636.335449 
	C149.941650,640.424377 142.116684,640.339844 134.971573,641.555237 
	C132.522430,641.971802 130.036667,642.184204 127.562469,642.440002 
	C121.370178,643.080139 115.804497,641.753601 111.023247,637.491150 
	C107.185898,634.070190 102.776611,631.220215 99.289207,627.491882 
	C91.664383,619.340393 91.953659,609.551880 94.625282,599.534912 
	C98.281540,585.826050 107.906044,577.153198 119.738098,570.649414 
	C125.926193,567.247986 131.644226,562.809875 138.990891,561.608826 
	C141.601852,561.181946 144.194260,560.395081 146.828949,560.593018 
	C151.120148,560.915283 155.382690,561.324463 159.690201,560.806274 
	C166.538727,559.982300 171.681671,563.548523 175.844009,568.172424 
	C180.957108,573.852478 184.700241,580.616516 188.500381,587.234985 
	C190.296555,590.363159 189.135254,594.110535 189.219696,597.576050 
	C189.274323,599.818970 189.442230,601.695374 191.601181,603.179810 
	C200.106232,609.027710 208.898041,614.321777 219.476639,618.772949 
	C216.386307,614.178101 213.864151,610.428040 211.811081,607.375427 
	C211.575089,604.097107 214.899368,605.680603 215.082886,602.954834 
	C208.667068,605.932251 207.178619,600.719788 204.935608,596.998291 
	C195.976303,582.133240 188.074158,566.726807 182.149399,550.387695 
	C180.945801,547.068420 178.251831,545.537720 175.938828,543.465698 
	C173.168716,540.984192 171.469147,538.325562 174.466904,534.932007 
	C175.929138,533.276733 175.498276,531.654236 174.984833,529.813171 
	C168.627136,507.016235 164.593430,483.911957 163.492752,460.162598 
	C162.249786,433.343353 165.045883,407.083893 171.016418,381.040070 
	C171.856400,377.376038 173.265228,373.871124 170.714035,370.109619 
	C169.082916,367.704651 170.734604,365.488251 173.088242,364.476898 
	C175.542297,363.422394 176.304642,361.593292 177.137558,359.276703 
	C180.346207,350.352448 183.711990,341.477325 187.330612,332.712463 
	C188.363953,330.209503 188.245697,328.750824 185.966461,327.330322 
	C183.991547,326.099457 182.091476,324.723877 180.279922,323.261627 
	C177.845474,321.296539 175.363892,320.581360 172.490524,322.268463 
	C169.751999,323.876434 167.815842,322.393219 165.881119,320.579834 
	C163.895386,318.718658 164.435043,316.760681 165.258728,314.637604 
	C168.881775,305.298889 169.039001,305.096588 161.374084,298.327301 
	C156.909821,294.384644 151.917007,291.024658 146.784744,287.898804 
	C139.870117,283.687439 132.872345,279.714355 127.345558,273.386658 
	C124.417465,270.034210 119.731651,268.155884 115.702721,265.850861 
	C113.573868,264.632904 112.175842,266.274200 111.399017,268.004913 
	C110.338745,270.367126 108.731873,272.199890 106.816704,273.840607 
	C104.951530,275.438477 102.904701,275.764954 100.867592,274.342438 
	C98.878143,272.953217 97.197304,271.157074 98.216888,268.472290 
	C101.513672,259.791138 106.854294,252.438812 113.684975,246.261078 
	C116.409416,243.797043 119.808693,244.535370 123.118759,245.850693 
	C132.776901,249.688538 142.558075,253.219086 152.191620,257.115814 
	C160.043945,260.292053 167.743118,263.845642 175.534836,267.174225 
	C176.977280,267.790436 178.366287,269.108398 180.223892,268.013794 
	C180.938568,265.900757 179.559982,264.511108 178.362228,263.238892 
	C167.776627,251.995239 158.942474,239.205383 147.478912,228.706238 
	C144.117783,225.627869 141.706116,221.412613 139.255051,217.472214 
	C137.263748,214.270935 137.191864,211.242050 140.497787,208.163864 
	C144.541260,204.398941 145.984558,198.719604 149.180008,194.251678 
	C150.047775,193.038345 150.699722,191.623383 151.737579,190.588730 
	C154.005966,188.327301 156.768829,186.922638 159.777939,188.956024 
	C162.897217,191.063828 162.308044,193.993652 160.817520,196.936768 
	C156.711624,205.043961 157.409790,205.348267 164.318085,211.491348 
	C174.721344,220.742233 187.414505,226.578705 198.068161,235.362793 
	C201.268616,238.001602 204.404221,240.734940 207.751373,243.175568 
	C211.306061,245.767517 214.563370,245.488358 216.975800,241.402267 
	C217.397812,240.687469 217.842377,239.950867 218.422943,239.370911 
	C220.891602,236.904816 223.587326,234.803802 227.192566,237.125397 
	C230.910309,239.519424 228.853058,242.969940 227.436203,245.054306 
	C224.104462,249.955673 220.434097,254.588425 217.647614,259.891754 
	C216.604263,261.877502 214.878098,263.527039 214.027420,265.767426 
	C213.098251,268.214600 211.335526,269.888306 208.547928,270.316223 
	C206.409210,270.644531 204.216980,271.503174 202.725006,269.086334 
	C201.386490,266.918091 201.430893,264.696045 202.631393,262.456238 
	C206.121048,255.945511 205.818634,255.344833 199.676834,250.891525 
	C184.379074,239.799438 169.151733,228.610962 153.452240,218.447250 
	C154.250290,221.584763 156.883057,223.893570 159.255005,226.349289 
	C165.850204,233.177399 171.710785,240.617737 177.679611,247.981873 
	C182.585724,254.034866 187.840057,259.812622 193.079575,265.585724 
	C196.236359,269.063995 198.750320,272.960419 201.188507,276.923615 
	C202.480942,279.024414 202.199341,281.206024 200.538422,282.906830 
	C198.868057,284.617340 196.848846,285.672638 194.236786,284.669281 
	C179.994736,279.198517 165.375534,274.538818 151.611298,268.059540 
	C143.460052,264.222473 134.758514,262.410645 126.732185,258.526428 
	C140.330856,268.868683 152.699539,280.778839 167.932373,288.746155 
	C170.021072,289.838593 171.845993,291.235077 173.603531,292.792053 
	C177.860001,296.562836 178.893616,296.397614 182.069077,291.718475 
	C185.068359,287.298920 188.560684,287.032532 191.645630,291.024536 
	C194.236954,294.377808 192.625259,296.959290 189.930832,299.155548 
	C186.974396,301.565369 183.721466,303.583527 181.776794,307.098297 
	C180.573044,309.273956 180.209488,310.923737 182.351379,312.751923 
	C185.502975,315.441956 188.598297,318.147583 192.961914,319.714844 
	C196.683609,313.281036 200.243149,306.927429 203.989441,300.685944 
	C219.886749,274.200348 239.589890,250.998444 263.083893,230.860901 
	C288.515167,209.062851 316.672119,192.025558 347.943939,180.125732 
	C372.794434,170.669418 398.431396,164.706406 424.994659,162.629791 
	C449.852417,160.686493 474.542267,161.684219 499.111206,165.812088 
	C501.468353,166.208130 504.898834,165.795822 505.727448,168.254089 
	C506.735199,171.243729 502.855804,171.798874 501.217133,173.444427 
	C499.014893,175.655945 495.927948,176.791962 494.808990,180.291061 
	C494.136597,182.393723 491.602448,182.347839 489.539001,182.021271 
	C473.045349,179.410721 456.439545,178.968872 439.777008,179.200867 
	C430.270996,179.333252 420.870148,180.494080 411.471619,181.627335 
	C408.555328,181.978973 405.917725,182.337631 403.266388,180.148499 
	C401.203064,182.788696 398.560211,183.763779 395.520935,184.381989 
	C368.073853,189.964828 342.158539,199.724121 317.725677,213.404907 
	C315.407135,214.703140 313.254333,216.446106 312.553375,211.014420 
	C310.192413,220.804398 301.724060,222.751755 295.729889,227.161377 
	C282.290314,237.048248 269.223663,247.365768 257.619598,259.328125 
	C239.098343,278.421234 223.336456,299.617432 211.124649,323.333801 
	C208.266022,328.885498 208.554398,329.320618 214.138168,331.785248 
	C238.008133,342.321228 263.077606,346.336548 289.027679,345.882660 
	C293.672302,345.801453 293.810608,344.060303 293.176086,339.970062 
	C291.520813,329.299347 283.107941,324.691956 275.517090,319.669891 
	C268.313110,314.903778 260.174408,311.668549 251.777893,309.330048 
	C243.788635,307.104980 240.926361,300.735809 244.429657,293.259583 
	C245.695496,290.558197 246.079147,287.324005 247.749115,284.956238 
	C251.234161,280.014984 256.088623,277.293213 262.406433,276.629425 
	C267.798523,276.062927 273.479431,278.881989 278.623932,275.303467 
	C279.028931,275.021729 279.991577,275.221130 280.533386,275.505219 
	C287.075409,278.935455 293.472931,276.707123 299.903809,275.117676 
	C306.213562,273.558167 311.780548,275.474731 316.820221,279.124084 
	C319.899963,281.354279 322.755676,281.821991 325.869873,279.335358 
	C327.784485,277.806549 330.058350,277.421631 332.473419,277.595428 
	C338.722351,278.045105 340.937592,281.738037 338.435608,287.535828 
	C337.233063,290.322571 335.841278,293.307068 333.482941,294.932190 
	C329.619965,297.594086 329.503540,300.670349 330.215942,304.737915 
	C331.879120,314.234375 333.638824,323.690277 336.354736,332.955414 
	C337.476410,336.781921 339.114197,338.267365 343.554016,336.914337 
	C356.307220,333.027740 368.758972,328.428406 381.150635,323.513733 
	C394.309052,318.294952 406.120728,310.831390 417.965210,303.354767 
	C420.399750,301.817963 422.424744,301.711731 424.592499,303.340027 
	C425.564026,301.675140 423.793854,300.065643 425.581299,298.495483 
	C428.220520,300.414398 432.072388,299.436920 435.525391,301.898346 
	C431.609283,306.123047 427.074646,308.577301 422.941833,311.427460 
	C399.659485,327.484161 373.785645,337.936188 346.835236,345.907440 
	C343.142700,346.999573 341.434387,348.148712 343.669220,351.986450 
	C344.624512,353.626984 344.151184,355.151581 342.632355,356.399445 
	C341.365173,357.440521 339.969452,358.492371 340.268555,360.492126 
	C341.142792,361.808716 342.604218,362.204681 343.788879,361.644226 
	C350.354248,358.538269 352.635834,363.804169 355.445984,367.638214 
	C356.839203,369.539032 357.848236,371.613556 360.682190,372.369690 
	C361.951202,369.735779 363.586914,368.352844 367.110687,369.412994 
	C371.322266,370.679932 375.718781,369.475372 379.796112,367.865753 
	C394.189423,362.183624 407.353394,354.987122 417.332703,342.425751 
	C427.751465,329.311218 442.170990,322.755402 458.705261,320.645813 
	C462.814026,320.121552 466.926056,319.338898 470.917603,318.242035 
	C478.120911,316.262695 483.490753,312.079773 487.229675,305.313202 
	C494.543976,292.076080 504.026093,288.230652 518.877197,290.254761 
	C529.128357,291.651947 537.247437,295.549530 542.675598,304.564667 
	C544.408447,307.442627 546.761719,308.379578 550.560608,308.159637 
	C566.356445,307.245117 582.172241,307.534790 597.887146,309.771820 
	C602.705322,310.457703 606.696899,314.704834 607.526001,320.054871 
	C604.360291,320.719940 601.329468,319.748779 598.233643,319.470520 
	C588.299866,318.577728 578.346252,317.874420 568.389282,317.284973 
	C564.365051,317.046722 559.771179,318.145691 560.449219,311.507141 
	C555.712891,312.148651 559.049866,315.014648 557.966431,316.857483 
	C556.991699,317.321289 555.676208,317.947205 554.160828,318.668274 
	C554.291992,319.298462 554.245728,320.030334 554.572754,320.505157 
	C560.169250,328.631104 567.139282,335.074249 576.531982,338.662659 
	C582.285339,340.860657 587.935608,343.327972 593.635559,345.666138 
	C602.526306,349.313171 609.759155,354.838715 614.529236,363.410248 
	C616.382263,366.739929 618.619873,369.669067 622.973450,370.535248 
	C646.275574,375.171478 668.383057,383.437347 690.008911,393.096283 
	C695.191956,395.411163 695.187500,395.421173 696.816711,399.204620 
	C703.963074,396.980774 707.730774,404.521606 714.341858,404.994720 
	C715.240112,399.982544 713.305908,395.234283 712.333496,390.580811 
	C709.986267,379.348267 706.778809,368.311554 702.878357,357.486786 
	C701.903320,354.780762 700.401978,352.888184 697.911865,351.575470 
	C673.170349,338.532806 647.194946,328.899963 619.784363,323.213135 
	C618.645325,322.976837 617.530518,322.612823 616.385864,322.415955 
	C613.877563,321.984558 611.605835,321.404236 612.789673,318.004395 
	C613.795471,315.115784 614.636047,312.157501 618.874573,313.032867 
	C626.392090,314.585480 633.705933,316.754913 640.900879,319.430206 
	C649.744507,322.718597 658.518188,326.012238 667.910278,327.881744 
	C674.785095,329.250244 681.148560,333.174530 687.751160,335.932678 
	C689.553467,336.685547 691.225769,337.951477 693.435181,337.554474 
	C694.520203,335.558136 693.127502,333.947906 692.417603,332.442322 
	C683.644165,313.834534 672.802063,296.507385 659.979675,280.411316 
	C658.348511,278.363586 656.413635,277.059875 653.963257,276.236755 
	C632.761841,269.114594 611.150574,264.064758 588.802979,262.049377 
	C557.301941,259.208466 526.378662,261.859100 495.875977,270.206024 
	C485.301178,273.099792 475.346161,277.367310 465.699341,282.432068 
	C460.892120,284.955994 456.557404,290.138977 451.166016,283.636993 
	C449.186462,286.610229 451.490082,288.274689 451.836121,290.229309 
	C443.683441,299.375854 437.574677,300.991058 430.653503,295.645691 
	C432.163116,293.039276 433.800049,291.175446 437.235107,292.894623 
	C439.159576,293.857758 440.444336,292.731415 439.869293,290.930359 
	C438.917725,287.950165 440.833649,287.091827 442.673492,285.927063 
	C449.136322,281.835510 455.516296,277.606598 462.078674,273.682190 
	C464.520782,272.221771 466.983887,270.197479 470.380829,271.493622 
	C471.247589,271.824371 473.009430,271.339447 473.607117,270.611267 
	C480.443298,262.282532 490.803558,262.011871 499.934753,259.204102 
	C510.424133,255.978668 521.356689,253.895157 532.222961,253.111557 
	C549.100342,251.894470 565.939026,249.561020 583.050293,251.601044 
	C599.921570,253.612427 616.711243,255.682617 633.152344,260.069397 
	C636.494019,260.960999 639.871948,261.716858 644.165710,262.762360 
	C638.680359,255.482208 632.218689,250.360413 626.102478,245.007355 
	C602.318726,224.191208 575.553345,208.220505 546.087219,196.784927 
	C535.527649,192.686813 524.633484,189.634766 513.744141,186.582108 
	C511.716492,186.013687 510.104004,185.575150 509.765137,182.951416 
	C508.906219,176.300919 508.780090,176.317200 502.445557,178.574692 
	C502.280212,177.964523 501.808777,177.226837 502.007690,176.806046 
	C504.350525,171.849747 511.980988,168.413025 517.218018,169.661224 
	C528.233887,172.286713 539.082214,175.432922 549.658142,179.504669 
	C552.386719,180.555176 555.215942,181.052292 553.072449,185.302689 
	C551.876648,187.673737 553.877991,190.046417 556.284424,189.421722 
	C559.883972,188.487289 563.567322,190.171432 567.018799,188.461456 
	C569.216675,187.372543 571.196228,188.457474 573.178833,189.416061 
	C603.468384,204.061020 630.292725,223.564743 653.926392,247.430099 
	C661.767151,255.347763 668.994141,263.866150 675.952087,272.591278 
	C676.873901,273.747253 677.842407,275.152435 679.110046,275.700928 
	C689.466675,280.181793 699.367737,285.599854 709.811035,290.819702 
	C716.454834,276.979095 728.839172,269.438660 740.699585,261.580139 
	C747.056641,257.368042 754.909058,256.607513 762.439575,255.605759 
	C763.750488,255.431381 765.047546,255.116653 766.362488,255.013885 
	C773.174072,254.481430 779.921997,253.739304 785.649963,259.068176 
	C789.526917,262.675049 794.340271,265.316925 798.014954,269.091187 
	C806.271973,277.572174 806.516174,288.035004 802.794434,298.328033 
	C794.568542,321.078003 775.489075,330.756775 753.876099,336.127136 
	C747.205933,337.784515 739.687500,336.696045 732.651123,335.964417 
	C728.348206,335.516968 724.565979,332.472443 721.887451,329.119385 
	C717.017883,323.023651 712.836731,316.391296 709.105957,309.508636 
	C708.869934,309.073273 708.527405,308.552307 708.587952,308.120697 
	C709.700867,300.178070 703.246277,298.559113 698.267212,295.712189 
	C697.690063,295.382202 697.063660,295.139252 696.479919,294.819672 
	C691.191528,291.924774 691.192810,291.922424 692.524536,286.818146 
	C689.463806,288.822754 689.140930,290.221893 691.172852,293.820129 
	C696.329590,302.951965 701.778625,311.913513 706.429382,321.335144 
	C710.930725,330.453888 715.070129,339.712097 718.418274,349.312103 
	C719.326721,351.917145 720.644592,354.012939 723.036682,355.565186 
	C725.095398,356.901093 726.725586,359.177643 725.290161,361.500427 
	C723.400391,364.558350 724.459290,367.161957 725.237549,370.044617 
	C731.015442,391.444916 735.179565,413.100189 735.343811,435.372742 
	C735.373169,439.357269 737.803528,443.568390 734.158386,447.213837 
	C733.921326,447.450958 734.067932,448.182953 734.185303,448.646973 
	C737.620789,462.230957 734.345764,475.641388 732.860901,489.035492 
	C731.635986,500.084229 729.342651,511.014587 726.166748,521.705688 
	C725.563416,523.736511 726.192139,525.109741 727.250793,526.740662 
	C729.143555,529.656799 728.476196,532.468323 725.297363,533.742065 
	C722.917053,534.695862 722.020508,536.274658 721.299316,538.364563 
	C717.660645,548.908569 713.887451,559.406616 708.867432,569.389221 
	C707.354431,572.397827 707.841248,574.339172 710.862305,575.866638 
	C713.518799,577.209717 716.045105,578.810059 718.435608,580.185608 
	C720.622986,579.599915 720.807739,577.550293 722.093262,576.544617 
	C724.755859,574.461853 727.501038,573.272583 730.731262,575.457458 
	C734.006714,577.672852 733.365112,580.353149 731.961548,583.336914 
	C728.497253,590.701294 728.572937,590.694031 734.165222,596.499451 
	C739.417053,601.951477 745.691345,605.996826 752.097107,609.902344 
	C758.583740,613.857056 765.026917,617.713745 770.256104,623.569458 
	C773.226196,626.895447 777.879822,628.775208 781.904602,631.080811 
	C784.330200,632.470276 785.574524,630.575684 786.518555,628.709045 
	C787.813599,626.148376 789.173462,623.713806 791.994934,622.477356 
	C794.245850,621.490906 796.187439,621.857300 797.996521,623.444519 
	C799.681580,624.923096 800.083191,626.570007 799.421875,628.800232 
	C796.921326,637.233215 790.900879,643.328918 785.425049,649.690247 
	C782.551025,653.028992 778.411011,652.809204 774.311279,651.203308 
	C756.408569,644.190613 738.445557,637.330688 721.009949,629.187134 
	C719.536377,628.498901 717.998352,627.701843 715.736633,629.226929 
	C720.424011,634.864685 725.125427,640.359558 729.650269,645.996155 
	C737.976318,656.368225 748.129578,665.124207 755.961426,675.932739 
	C760.784546,682.588989 760.638306,683.617737 756.008240,690.037292 
	C753.203003,693.926697 751.173889,698.371887 748.735107,702.531677 
	C747.898071,703.959229 747.064636,705.472534 745.898254,706.605652 
	C743.626282,708.812866 740.868652,710.358765 737.890381,708.069458 
	C735.003784,705.850647 735.435608,702.917358 736.995361,699.979309 
	C740.951782,692.526794 740.175049,691.598633 733.946228,685.927429 
	C723.390503,676.316772 710.283813,670.450073 699.423950,661.368652 
	C696.492432,658.917175 693.671936,656.291687 690.526733,654.147644 
	C686.721436,651.553528 683.254456,651.693115 680.222839,655.921936 
	C676.573608,661.012329 673.124451,662.126221 670.448120,659.769836 
	C667.919373,657.543457 668.545044,652.967773 672.340881,649.211182 
	C677.386292,644.217896 679.544983,637.455750 683.482605,631.794556 
	C684.605286,630.180359 684.988525,627.765869 687.066467,627.228455 
	C689.684692,626.551208 692.762817,625.232788 694.882935,628.169312 
	C696.795349,630.818237 696.435303,633.557495 693.978882,635.796753 
	C690.753418,638.737122 691.453125,641.644653 694.615356,643.642883 
	C707.418152,651.733032 718.180725,662.685791 731.521179,669.960693 
	C736.572693,672.715393 740.353699,677.015503 745.704773,680.495911 
	C742.379822,673.447815 736.520630,669.316772 732.225281,663.946777 
	C724.452332,654.229187 716.305115,644.810059 708.271362,635.302429 
	C704.734863,631.117126 700.909180,627.188293 697.900269,622.551941 
	C696.259460,620.023621 694.895813,617.586853 696.709351,614.743774 
	C698.764893,611.521301 701.979919,611.986816 704.775024,613.170471 
	C720.513855,619.835876 737.162659,624.115601 752.349731,632.372864 
	C758.371094,635.646667 765.710999,636.880005 772.455200,639.137756 
	C757.809448,629.158203 745.413513,616.160217 729.427429,608.116455 
	C727.100037,606.945435 725.252136,604.843628 723.121399,603.254211 
	C720.139832,601.030029 717.617920,601.208496 715.803772,604.797607 
	C714.651367,607.077576 713.386536,609.398987 710.245850,608.822998 
	C707.769897,608.368896 706.102051,606.758667 705.233032,604.399658 
	C704.086548,601.287659 706.045349,599.412415 708.001831,597.503479 
	C709.671631,595.874329 712.166016,595.311523 713.453247,593.206543 
	C713.969421,592.362366 714.517151,591.537537 715.258057,590.379517 
	C712.310059,586.989319 708.278503,585.338562 704.532227,583.416199 
	C701.855347,582.042603 701.147888,584.864197 700.266785,586.418884 
	C695.663818,594.540344 690.711060,602.438354 685.461304,610.150818 
	C681.645203,615.757141 679.501831,616.382812 673.353333,613.627136 
	C671.901978,612.976685 670.739563,612.495422 669.194397,613.445557 
	C667.007874,614.790100 665.113403,614.100525 663.445923,611.979736 
	C664.550232,608.570068 667.233154,606.185913 669.190857,603.366150 
	C674.706116,595.422058 679.959229,587.323364 684.537781,578.798340 
	C685.734802,576.569580 686.527893,574.424927 683.432800,573.011475 
	C672.235291,567.897644 660.973206,562.954529 648.918213,560.148926 
	C648.323730,560.010620 647.651001,560.208374 646.594788,560.276794 
	C646.141724,563.468018 645.327026,566.565674 645.325745,569.663635 
	C645.319641,584.650696 645.413025,599.641907 644.178467,614.587952 
	C643.353394,624.576477 642.016541,634.489319 634.192993,642.692322 
	C633.554443,643.436218 633.292236,643.709961 633.030029,643.983704 
M216.078735,455.522522 
	C204.005615,450.750854 192.903214,444.149231 182.004807,436.773041 
	C180.771729,439.633606 180.192169,442.021088 180.285355,444.521484 
	C180.632248,453.829559 181.107788,463.133514 181.377426,472.443604 
	C181.556961,478.642181 184.386978,483.051300 189.614548,486.212494 
	C194.598389,489.226318 199.484879,492.403198 204.373352,495.571381 
	C206.091248,496.684753 209.338638,496.989532 208.785019,499.582642 
	C208.229507,502.184540 205.308472,503.399261 202.847992,504.343170 
	C200.920776,505.082550 199.358505,503.666840 197.765610,502.812408 
	C193.764877,500.666565 190.296555,497.505371 184.970535,495.889313 
	C186.970276,505.287079 188.186554,514.059937 191.036240,522.562195 
	C193.626282,530.289917 196.092911,538.049500 198.996735,545.673523 
	C199.964584,548.214600 201.427078,549.898438 203.675552,551.195190 
	C213.231201,556.706177 223.344620,560.981323 233.804016,564.368469 
	C237.140457,565.449036 240.023392,566.611328 241.406876,569.980591 
	C243.147064,569.692993 242.932968,566.899597 244.956207,567.591125 
	C251.430740,569.803955 259.057190,568.064514 264.643311,573.349243 
	C265.392273,574.057739 266.446686,574.526245 267.331177,573.665344 
	C270.778168,570.310486 274.990112,571.850830 278.763611,572.171509 
	C291.478912,573.252014 304.009583,571.639404 316.527039,570.050537 
	C333.942566,567.839966 350.635956,562.677124 367.127686,556.834534 
	C370.266113,555.722656 373.395355,555.162170 377.186676,556.526917 
	C374.068207,561.326538 371.560547,565.921326 365.813477,567.416077 
	C362.120331,568.376587 358.473724,569.546570 354.862518,570.786560 
	C336.184845,577.200195 316.924561,580.976257 297.278259,582.021606 
	C267.925049,583.583435 239.592850,578.649780 212.653397,566.531311 
	C211.430420,565.981079 210.106949,564.632996 208.589905,566.286194 
	C208.620148,568.357422 209.702606,570.080322 210.694916,571.766541 
	C215.839386,580.508545 221.108521,589.177368 226.215195,597.941040 
	C227.145905,599.538208 229.851898,600.675049 228.544434,602.964539 
	C227.209167,605.302856 224.834106,602.759766 223.028885,603.513916 
	C222.830505,603.596741 222.755005,603.973816 222.252472,604.886536 
	C230.093399,602.891846 233.390228,608.035645 237.416138,612.959839 
	C242.358505,619.005005 245.850342,626.659546 253.919525,629.754822 
	C254.631546,630.027893 254.862534,631.555054 255.457626,632.792114 
	C256.502136,630.437866 258.211792,630.241211 260.463806,630.504700 
	C267.561127,631.335449 274.719604,631.669617 281.801941,632.596680 
	C291.013733,633.802368 300.308655,630.148987 309.449158,633.246826 
	C315.562531,629.288269 322.801544,629.868286 329.505493,628.302490 
	C354.545319,622.454102 378.684937,614.182678 401.722626,602.630188 
	C408.064728,599.449890 411.857178,595.612000 412.469238,588.161377 
	C413.439178,576.354065 417.380524,564.772095 413.310822,552.715881 
	C411.888519,548.502502 410.611755,547.763000 406.780396,549.696960 
	C398.910278,553.669434 390.907379,557.384583 382.893219,561.061951 
	C381.065857,561.900452 379.198883,563.335022 375.553345,562.053101 
	C381.036011,556.720581 383.554230,549.726868 390.848785,547.067810 
	C396.824493,544.889465 402.111267,541.336182 407.742676,538.469360 
	C409.467712,537.591125 410.636230,536.477722 410.722687,534.288635 
	C411.030853,526.483887 413.176941,518.834106 412.781616,510.966461 
	C412.670258,508.750244 413.504517,507.160645 415.963531,505.981110 
	C412.032623,503.584045 412.866730,499.862274 412.749878,496.451416 
	C412.617249,492.580353 410.799286,491.338806 407.221008,492.662903 
	C405.976227,493.123505 404.782166,493.735260 403.597107,494.341003 
	C374.300690,509.316711 343.430267,519.431824 310.812531,523.882507 
	C306.519226,524.468384 301.895172,525.906494 295.893158,523.657227 
	C301.016571,520.718872 302.505920,515.471619 307.821289,514.747253 
	C342.140656,510.070374 374.504730,499.463898 404.963776,482.960388 
	C408.361633,481.119324 409.155457,479.096954 408.168182,475.314178 
	C405.656250,465.689697 403.168579,456.041565 404.577362,445.843414 
	C405.238800,441.055481 401.677734,438.615570 397.330841,440.609100 
	C393.661865,442.291687 391.359070,442.521973 391.031494,437.522644 
	C390.956970,436.385559 389.706482,435.320587 389.606445,433.899933 
	C389.448853,431.661804 387.939270,431.425171 386.037415,431.552032 
	C364.462128,432.990631 345.707489,426.422913 330.032959,411.471985 
	C327.389160,408.950317 324.926208,407.806213 321.139130,408.802979 
	C316.660645,409.981720 311.955383,410.970703 307.367462,410.894592 
	C301.393768,410.795410 295.537140,411.582001 289.686646,411.875824 
	C257.434723,413.495453 226.921356,406.297333 198.458191,390.843628 
	C195.281403,389.118866 192.129837,387.347626 189.160660,385.705292 
	C187.009354,387.161499 187.124893,389.208160 186.739960,390.907471 
	C184.609253,400.312988 183.414520,409.872742 182.072723,419.416382 
	C181.537338,423.224213 182.818634,425.186005 185.622772,427.253723 
	C225.890671,456.946655 271.128021,463.735870 319.375244,456.122162 
	C340.007721,452.866180 359.699005,446.158325 379.018646,438.337006 
	C380.529816,437.725220 382.184265,436.006958 383.752960,438.210724 
	C383.834564,440.555420 380.185333,441.348938 381.469879,443.936951 
	C383.117889,447.257141 380.725220,448.131805 378.520325,448.914703 
	C369.585327,452.087433 360.699158,455.442383 351.628998,458.180206 
	C333.445740,463.668793 314.962189,467.333710 295.881775,468.546387 
	C280.944366,469.495697 266.343689,468.102936 251.700882,465.911926 
	C249.222000,465.540985 246.904785,464.990906 246.678726,461.515717 
	C246.468094,458.277649 244.070786,457.645721 241.683456,459.344360 
	C236.778885,462.834167 232.032227,461.729767 227.079987,459.647919 
	C223.707962,458.230377 220.214462,457.101807 216.078735,455.522522 
M677.332520,500.080444 
	C686.465149,503.713745 695.307922,507.964905 704.069092,512.412476 
	C708.934692,514.882568 710.087219,514.306946 711.346130,509.102203 
	C713.729370,499.249146 715.310730,489.249390 716.701172,479.211060 
	C717.194885,475.646545 715.640686,473.631714 712.783752,471.942444 
	C710.315247,470.482880 707.133850,469.972748 705.391113,466.970245 
	C707.404602,464.882355 709.252258,463.671967 711.903320,465.636108 
	C713.941284,467.146027 716.198364,467.546234 717.070190,464.607666 
	C718.039124,461.341309 718.873352,457.876190 718.847290,454.504700 
	C718.781860,446.033051 717.832642,437.560944 717.936035,429.097534 
	C718.022156,422.047333 715.954712,417.172638 709.236877,413.903229 
	C704.619934,411.656189 698.537903,410.224182 698.192871,403.157288 
	C696.164734,404.130981 694.090942,406.378143 692.953918,404.805847 
	C690.446472,401.338501 686.555115,402.308990 683.499573,400.825317 
	C667.727112,393.166870 651.234802,387.457245 634.296570,382.998993 
	C632.607361,382.554352 630.898621,381.531769 629.185791,382.893555 
	C628.944763,384.451569 629.964539,385.469727 630.508606,386.646729 
	C636.232971,399.028961 642.297729,411.362610 643.017578,425.282532 
	C643.293335,430.614929 645.775879,432.421936 650.446655,434.154510 
	C664.337708,439.307159 679.445984,441.833496 691.154663,452.000732 
	C691.494324,452.295685 692.097717,452.484711 692.542603,452.430634 
	C698.030151,451.763580 701.757080,455.748444 706.255615,457.648346 
	C708.487915,458.591125 708.601318,460.162506 706.614014,461.840454 
	C703.278564,464.656677 700.220215,465.514923 695.864563,463.139740 
	C682.273010,455.728149 668.042419,449.692627 653.241211,445.048553 
	C650.109619,444.065948 648.136414,443.971893 648.178467,448.225006 
	C648.300232,460.525238 648.267944,472.828400 648.136047,485.128723 
	C648.102356,488.271851 649.157166,489.850098 652.265869,490.882355 
	C660.469482,493.606171 668.532043,496.754761 677.332520,500.080444 
M502.924072,546.333740 
	C512.055786,543.754272 521.387573,542.184814 530.749084,540.733704 
	C546.582275,538.279419 562.504272,537.449341 578.507996,537.849976 
	C580.448181,537.898499 582.803650,538.297485 583.538391,535.739319 
	C584.400574,532.737610 585.754822,529.940857 585.870361,526.628418 
	C586.136169,519.000977 586.846619,511.383850 587.554688,503.779114 
	C587.965271,499.370819 587.204529,495.144989 585.963806,491.008179 
	C585.236511,488.583466 583.905945,486.451721 580.716553,486.671356 
	C566.143433,487.674896 551.471619,486.999725 536.970337,489.232513 
	C518.009766,492.151855 498.960663,494.620544 481.356934,503.123566 
	C478.074707,504.708923 477.021606,506.554016 477.147675,510.004120 
	C477.250488,512.817871 479.217346,515.737000 477.746002,518.297241 
	C476.249176,520.901794 476.607697,522.991333 477.876587,525.247681 
	C481.171143,531.106384 481.515350,537.083740 479.159729,543.391418 
	C477.960449,546.602600 477.340851,550.016602 479.261810,553.825562 
	C487.014954,551.365540 494.324341,548.115479 502.924072,546.333740 
M215.750549,388.714905 
	C248.559906,402.471405 282.378998,405.796661 317.697784,399.508301 
	C317.078735,397.886261 316.953613,397.195099 316.592255,396.664978 
	C308.564423,384.887238 302.686157,372.064819 298.239319,358.575714 
	C297.213043,355.462524 295.116272,354.922089 292.442719,355.327637 
	C286.474426,356.232971 280.549072,355.620941 274.566681,355.405701 
	C251.485123,354.575134 229.547577,349.183563 208.572372,339.731689 
	C205.172241,338.199524 203.496902,338.806244 202.110840,342.198547 
	C198.335266,351.438934 195.079147,360.851196 191.947678,370.324005 
	C190.759537,373.918243 191.802551,375.886871 194.793106,377.703949 
	C201.337677,381.680420 208.099350,385.220032 215.750549,388.714905 
M109.181610,596.705872 
	C104.059570,603.189392 102.468834,610.366821 107.088242,617.474792 
	C111.546692,624.335144 117.497612,629.680603 126.718773,628.750305 
	C142.331619,627.175171 156.572617,622.896973 168.371979,611.464478 
	C174.534454,605.493591 175.722397,597.972900 175.035110,591.302917 
	C173.915070,580.433105 169.298523,573.821777 157.073807,573.374451 
	C152.129013,573.193604 146.898148,573.186890 142.229523,574.564758 
	C129.268768,578.390137 117.531540,584.474731 109.181610,596.705872 
M744.234375,323.663818 
	C748.069946,322.177216 752.241821,323.399292 756.067993,322.349518 
	C770.172974,318.479584 781.938660,311.109985 789.809631,298.462738 
	C792.339417,294.397675 794.178894,290.223816 792.845764,284.873688 
	C789.826660,272.757690 775.922180,265.182922 763.912537,268.858643 
	C757.728210,270.751404 751.565002,272.667267 745.429443,274.728424 
	C734.953125,278.247650 727.534180,285.272858 723.700623,294.920258 
	C721.721375,299.901123 722.531860,306.843628 724.215881,312.233032 
	C726.947449,320.975037 734.144714,324.565857 744.234375,323.663818 
M514.717834,482.892731 
	C526.049561,481.233887 537.288696,479.029968 548.772522,478.310364 
	C555.933960,477.861664 563.079163,477.915741 570.230835,477.744537 
	C573.800598,477.659119 575.651245,476.079620 573.564514,472.834503 
	C568.332642,464.698181 568.469116,454.771942 564.205200,446.303864 
	C561.741394,441.410797 560.500793,440.612305 555.473145,442.905334 
	C551.936340,444.518341 548.453186,449.386627 544.403931,442.713318 
	C546.024719,448.437958 546.046448,448.491486 540.819275,450.613403 
	C538.210266,451.672455 535.556274,452.695190 532.834534,453.388885 
	C521.368225,456.311096 509.666992,457.519989 497.879303,458.354065 
	C492.581024,458.728943 486.457886,458.900696 483.900452,464.959564 
	C480.851898,472.181915 479.495361,479.931000 478.383179,487.663635 
	C478.100250,489.630676 477.417694,491.967590 479.336395,493.891022 
	C490.259338,488.306030 502.176239,486.027557 514.717834,482.892731 
M649.330872,521.332581 
	C652.339905,528.340881 653.065674,535.171265 649.707458,542.519836 
	C646.989624,548.467285 647.723572,549.288635 654.046082,551.393921 
	C665.421936,555.181763 676.678467,559.270691 687.574707,564.286743 
	C690.241455,565.514343 691.709900,565.052246 693.035217,562.276367 
	C697.777466,552.343567 701.464417,542.022278 705.224243,531.698669 
	C707.030396,526.739441 706.103088,524.203308 701.455566,521.864746 
	C690.739258,516.472534 680.001221,511.151642 668.762451,506.939331 
	C661.666138,504.279633 654.688477,501.153168 646.727234,499.864899 
	C645.603760,507.298767 645.644775,514.114380 649.330872,521.332581 
M434.302246,534.124878 
	C433.150726,536.634644 433.083008,539.324463 433.364197,541.958435 
	C434.619110,553.714233 434.778229,565.452698 433.346039,577.206726 
	C433.201508,578.393066 432.723602,579.882751 434.360443,580.969421 
	C435.309937,580.543396 436.441010,580.223022 437.360352,579.593567 
	C444.347015,574.809692 451.258087,569.914795 458.270325,565.169250 
	C460.501617,563.659241 460.787415,561.975891 459.765503,559.644470 
	C454.884705,548.509155 452.482422,536.959656 453.988892,524.746277 
	C454.161499,523.346924 454.278351,521.695740 452.091583,520.416748 
	C445.881714,523.908875 439.783661,528.014282 434.302246,534.124878 
M441.351471,515.895813 
	C443.954163,514.101135 446.338776,511.398590 449.207031,510.709534 
	C454.424347,509.456055 454.132721,506.199280 453.509277,502.457123 
	C451.938446,493.028595 450.318146,483.607941 448.641052,474.197784 
	C448.267548,472.102173 447.983643,469.760712 445.434174,469.003906 
	C442.899872,468.251556 441.499329,470.373657 439.758636,471.509338 
	C438.023193,472.641632 437.893311,474.667725 437.781769,476.442078 
	C437.010376,488.709503 435.152893,500.900635 435.254669,513.230835 
	C435.291351,517.677185 437.037964,518.666199 441.351471,515.895813 
M612.227356,528.386108 
	C611.903809,533.320374 613.396301,538.228271 612.121460,543.347900 
	C616.000000,544.164856 619.945190,543.309875 623.130737,545.893005 
	C623.954834,543.836792 623.729675,542.181702 623.462708,540.551086 
	C621.152283,526.439331 622.182129,512.040771 619.794434,497.931976 
	C619.468323,496.005280 620.070679,493.287964 617.569458,492.994202 
	C614.529419,492.637146 614.699219,495.734741 614.367310,497.660034 
	C612.671082,507.500183 611.947021,517.426819 612.227356,528.386108 
M592.031982,398.742737 
	C588.789978,398.138000 585.526062,397.629852 582.312134,396.901306 
	C579.096130,396.172302 578.092773,397.805664 577.992737,400.577881 
	C577.895325,403.275940 578.957581,404.360474 581.892334,404.108246 
	C585.010254,403.840332 588.135803,404.471771 590.988953,406.007538 
	C592.988159,407.083618 595.217163,406.872314 597.307556,406.635071 
	C599.959717,406.334137 601.443359,404.312958 601.428284,401.840210 
	C601.413513,399.419037 599.112244,399.474792 597.315186,399.295013 
	C595.836853,399.147125 594.353760,399.047577 592.031982,398.742737 
M631.833862,435.581635 
	C628.930847,434.691925 626.314575,431.693573 622.797607,434.131012 
	C623.944580,437.931580 627.181091,438.763336 630.021729,439.954193 
	C631.660645,440.641327 633.701721,442.895905 635.213501,440.368988 
	C636.674744,437.926544 633.956177,437.095123 631.833862,435.581635 
z"/>
<path fill="#000000" opacity="1.000000" stroke="none" 
	d="
M397.127838,95.762329 
	C394.860809,99.413513 394.468628,103.868790 389.468048,106.049973 
	C398.289215,110.763496 400.596069,118.432205 401.536072,127.005928 
	C401.910583,130.421814 403.346436,133.718872 404.270447,137.077911 
	C404.807220,139.029404 405.260986,141.455811 407.909698,140.796463 
	C410.049408,140.263824 412.009796,138.267197 411.338776,135.946625 
	C409.837433,130.754425 410.373962,125.346138 409.132690,120.167572 
	C408.738220,118.521683 408.431671,116.828331 408.994537,115.237175 
	C409.680908,113.297005 411.003204,111.554283 413.093719,111.231049 
	C415.430847,110.869675 416.725677,112.690659 417.476746,114.608902 
	C420.807495,123.115700 421.646301,132.040833 421.061035,141.034241 
	C420.717896,146.307281 414.328278,152.792175 409.964203,153.254105 
	C402.146240,154.081650 398.625885,151.692642 395.138947,144.371857 
	C391.872498,137.513916 391.335266,129.953339 388.865509,122.896072 
	C386.886353,117.240662 383.485046,114.583542 377.738434,115.443481 
	C373.635193,116.057510 369.541473,116.749458 365.424866,117.255058 
	C362.350464,117.632668 360.857330,119.032478 361.529907,122.238312 
	C362.893341,128.737289 364.080536,135.279480 365.664337,141.724243 
	C367.228546,148.089355 368.822968,148.838333 374.914948,147.053543 
	C376.187653,146.680664 377.512939,146.407608 378.832031,146.288956 
	C381.710449,146.030029 383.540802,147.559784 384.670471,150.056015 
	C385.771729,152.489517 385.143860,154.560120 383.320099,156.417130 
	C381.351501,158.421692 378.664490,159.363251 376.206024,159.813889 
	C366.487732,161.595215 357.091675,164.546829 347.588257,167.103256 
	C344.177795,168.020691 341.567657,166.866074 339.737396,164.226685 
	C337.942230,161.637909 336.174377,158.661240 338.267303,155.460770 
	C340.121124,152.625946 342.510101,149.921295 346.390778,150.883377 
	C350.086700,151.799637 352.761627,150.443848 354.539215,147.623230 
	C356.181488,145.017319 354.694916,142.512634 352.856171,140.451462 
	C350.396698,137.694519 351.773682,134.111176 350.654449,131.027557 
	C347.486908,122.300659 345.933533,113.212715 344.664825,104.021683 
	C343.899414,98.476784 342.199890,93.026009 340.541382,87.649773 
	C339.105469,82.995216 335.354523,83.598343 331.891144,84.839638 
	C327.676605,86.350128 324.449341,85.803360 322.261047,81.552864 
	C318.047058,73.367844 320.377960,69.788475 329.242310,68.919296 
	C335.350128,68.320412 341.440948,68.041176 347.525482,66.897079 
	C352.386810,65.982979 356.680206,63.797729 361.096863,62.014065 
	C368.670563,58.955437 375.993774,59.886135 382.841370,62.981377 
	C390.998993,66.668777 395.773590,73.842163 397.007111,82.606041 
	C397.585480,86.715080 398.956177,91.110474 397.127838,95.762329 
M353.890381,83.893112 
	C352.831757,87.642548 354.138580,91.058983 355.386688,94.481377 
	C360.462128,108.398720 360.572937,108.700233 374.705627,103.568031 
	C382.910950,100.588333 389.291687,97.080727 385.228485,83.960182 
	C383.482391,78.321800 379.494049,75.327019 375.662140,71.584686 
	C374.379059,75.164978 371.459686,75.746628 368.225342,76.230316 
	C362.833893,77.036598 357.757050,78.729172 353.890381,83.893112 
z"/>
<path fill="#000000" opacity="1.000000" stroke="none" 
	d="
M497.281372,777.273865 
	C497.157990,770.939392 494.733978,765.538269 493.301392,759.922729 
	C492.844360,758.131104 492.484009,755.437073 489.712738,756.072510 
	C487.123901,756.666199 486.090179,758.976807 486.390350,761.538086 
	C487.027710,766.976257 487.591339,772.445496 488.684235,777.800171 
	C489.448792,781.546021 488.397461,784.531799 485.126495,785.536194 
	C481.609589,786.616150 480.581055,783.313660 479.579865,780.542542 
	C476.748291,772.704895 476.392883,764.592896 476.774048,756.410400 
	C476.993103,751.709106 482.802734,744.845581 487.042419,743.954590 
	C493.382935,742.621948 498.767303,745.458008 501.875702,751.329956 
	C505.750580,758.649902 506.461639,766.909546 509.117310,774.591980 
	C510.910828,779.780334 513.890015,782.324280 519.366028,781.744324 
	C523.656372,781.289978 527.927490,780.597290 532.178345,779.847168 
	C535.119080,779.328247 536.963928,778.149414 536.026611,774.403442 
	C534.374329,767.799683 533.462830,761.008850 531.768372,754.417847 
	C530.361816,748.946777 528.538147,748.233215 523.155212,749.823914 
	C522.200195,750.106079 521.195068,750.215515 520.234680,750.482666 
	C516.416809,751.544678 513.950195,749.801514 512.895630,746.375549 
	C511.850616,742.980591 513.842468,740.637207 516.716919,739.113647 
	C518.175598,738.340515 519.761963,737.606628 521.369751,737.349609 
	C530.916016,735.823364 540.011719,732.537109 549.373962,730.299133 
	C552.801331,729.479797 555.791321,729.787048 557.852173,732.729858 
	C559.671082,735.327271 561.411133,738.351074 559.523560,741.545776 
	C557.652527,744.712280 554.752136,746.734192 550.794678,746.120239 
	C547.399353,745.593445 544.779602,746.969116 543.005188,749.534058 
	C541.230469,752.099426 543.306885,754.190430 544.694519,756.252441 
	C547.298584,760.122070 546.647339,764.854309 548.000122,769.122986 
	C550.730164,777.738159 552.083740,786.691650 553.117859,795.763367 
	C553.677551,800.673828 555.766357,805.945679 557.773743,810.843384 
	C559.040222,813.933472 561.420166,813.488586 564.054749,812.765930 
	C572.578308,810.428101 575.790955,812.528503 577.414978,820.925964 
	C577.821045,823.025818 577.569031,824.448669 575.719971,825.583862 
	C573.577637,826.899170 571.460266,828.348206 568.830200,828.214355 
	C557.438965,827.634644 546.754578,830.494080 536.472107,835.009094 
	C529.019165,838.281677 521.653259,837.040405 514.749939,834.182007 
	C507.889374,831.341309 503.774414,824.897095 501.590729,818.274963 
	C499.346954,811.470398 498.242554,804.054382 502.590668,797.025513 
	C504.152191,794.501221 506.000305,792.634216 508.721436,790.752441 
	C502.450592,788.317078 499.279449,783.523071 497.281372,777.273865 
M537.963013,791.430481 
	C530.432739,788.453369 524.525757,793.098938 518.363892,795.878418 
	C512.116943,798.696350 510.214813,802.166443 511.405762,808.582825 
	C512.596619,814.998901 514.535706,821.286560 521.800354,824.099548 
	C524.487122,821.999817 527.727051,821.112061 531.273010,820.626465 
	C539.903931,819.444458 544.570007,815.180847 543.689575,808.846252 
	C542.876343,802.994873 541.637634,797.105896 537.963013,791.430481 
z"/>
<path fill="#000000" opacity="1.000000" stroke="none" 
	d="
M632.853394,644.268555 
	C633.292236,643.709961 633.554443,643.436218 633.996521,642.938965 
	C637.393372,641.999451 638.953796,639.215515 640.928711,637.069214 
	C646.677002,630.822083 652.249939,624.413086 657.861389,618.040955 
	C658.752380,617.029114 659.522766,615.808167 661.062805,616.019897 
	C662.845581,616.264954 662.553223,617.773682 662.865540,619.070679 
	C663.667786,622.401489 669.104492,623.680786 671.631592,621.222534 
	C672.461853,620.414856 673.065063,619.344971 673.967163,618.647156 
	C675.122314,617.753662 676.565979,616.621094 677.944946,618.043457 
	C679.145325,619.281555 678.110535,620.485901 677.239746,621.537537 
	C673.417786,626.153198 669.547302,630.730225 665.807678,635.411743 
	C664.365662,637.216858 662.300232,637.083191 660.031433,637.707458 
	C660.965088,639.902344 660.230774,641.584473 658.618103,643.294128 
	C641.160278,661.802246 621.759644,677.911865 600.186707,691.438171 
	C597.020874,693.423035 592.966248,690.791504 590.280518,694.021667 
	C589.909363,694.468079 588.722900,694.369141 588.520935,694.804321 
	C584.225830,704.061829 574.461609,705.304749 566.738953,709.014954 
	C543.814453,720.028320 519.493591,726.887695 494.363892,730.839478 
	C493.333832,731.001465 492.382080,731.109619 491.310822,729.957520 
	C492.202820,726.798157 494.191956,724.799072 497.775726,724.736450 
	C500.051880,724.696716 501.759491,724.173340 501.821594,721.491333 
	C501.869629,719.415710 501.950958,717.414490 498.900726,717.422668 
	C497.548859,717.426270 496.938385,716.238770 496.959442,714.948914 
	C496.987823,713.213562 498.435944,712.841492 499.703156,712.526794 
	C504.866425,711.244385 510.048187,710.035950 515.227722,708.819885 
	C523.170959,706.954956 530.976074,704.618774 538.636353,701.821411 
	C540.936951,700.981323 542.914062,700.478516 544.109558,704.029236 
	C544.032898,698.942871 547.835083,698.331055 550.876831,697.147400 
	C563.332764,692.300659 575.031006,685.952698 586.691284,679.498047 
	C590.801392,677.222900 594.442444,671.490417 600.605835,678.217102 
	C597.366516,671.356262 602.083313,669.669067 605.444397,667.182922 
	C614.947327,660.153625 624.469360,653.143250 632.853394,644.268555 
z"/>
<path fill="#000000" opacity="1.000000" stroke="none" 
	d="
M650.968811,202.462372 
	C656.665283,186.969696 668.093628,176.332687 679.749573,166.265839 
	C685.859375,160.988998 694.245361,159.109741 702.588867,160.058670 
	C705.374878,160.375519 707.594604,158.247223 710.354492,159.221039 
	C718.268188,162.013397 725.489502,165.927536 731.158752,172.220932 
	C734.970764,176.452545 737.462769,181.193146 735.515747,187.225784 
	C734.664307,189.863846 737.435608,192.198990 736.306152,194.952850 
	C736.629700,195.235504 736.953186,195.518173 737.276672,195.800842 
	C738.829285,193.943527 740.376709,192.081894 741.936340,190.230545 
	C742.860962,189.132904 743.616638,187.314255 745.445251,188.391281 
	C747.339600,189.506989 747.432312,191.464401 746.424683,193.213028 
	C745.526001,194.772690 744.425476,196.323914 743.083252,197.502121 
	C736.196411,203.547455 729.659546,209.916229 723.789307,216.972260 
	C722.204041,218.877762 720.403198,220.623123 717.367310,219.633469 
	C712.114380,217.921097 710.385986,213.153473 714.333923,209.314041 
	C719.905151,203.895996 723.070801,196.973312 727.274353,190.699387 
	C728.799133,188.423615 727.975769,186.140793 727.082092,184.098618 
	C724.150635,177.399933 713.360901,170.479309 706.447449,171.787079 
	C701.684937,172.688004 697.055359,175.077347 692.756897,177.495560 
	C681.129272,184.036804 672.901672,193.803101 667.346191,205.863022 
	C661.095947,219.431335 671.657898,234.246048 686.596436,232.723801 
	C691.780212,232.195541 695.633423,228.742508 699.533325,225.682007 
	C702.229065,223.566452 704.591553,220.926590 707.966492,224.627335 
	C712.038208,229.092117 712.097534,230.574615 708.113464,234.641815 
	C706.599487,236.187393 704.993713,237.648453 703.547058,239.253754 
	C696.777954,246.765106 687.983337,249.821732 678.502441,247.861084 
	C669.896790,246.081436 662.371155,241.123779 656.817444,233.943726 
	C649.610718,224.626633 648.116699,214.125320 650.968811,202.462372 
z"/>
<path fill="#000000" opacity="1.000000" stroke="none" 
	d="
M229.190338,672.898254 
	C226.556747,670.582642 224.582016,668.141296 221.743469,666.520569 
	C212.394669,661.182800 205.291275,665.915100 198.202820,671.323242 
	C192.845764,675.410461 190.785614,675.098816 187.730637,670.148438 
	C186.408920,668.006775 186.479004,666.042297 188.127090,664.205872 
	C193.153641,658.604980 198.236038,652.461609 205.337906,650.080627 
	C213.395996,647.379028 221.499527,648.337708 229.408524,653.310974 
	C238.042648,658.739990 243.851868,665.803467 247.247223,675.085266 
	C249.703201,681.799072 248.421936,688.835266 246.357574,695.123718 
	C242.383881,707.228516 233.785233,716.347839 224.571884,724.949951 
	C218.091690,731.000244 211.151947,735.470642 202.230133,737.013855 
	C186.050156,739.812378 172.972748,734.522034 163.714264,720.961609 
	C159.552765,714.866455 162.378967,707.602295 161.876678,701.106628 
	C159.751053,702.605042 157.521317,704.821228 155.498260,707.259033 
	C154.636459,708.297485 153.757965,709.516174 152.206390,708.686218 
	C150.597702,707.825684 150.757065,706.188660 150.953308,704.696228 
	C151.160675,703.119080 152.258743,702.015869 153.340607,700.981995 
	C160.553833,694.088623 167.665604,687.111633 174.173157,679.518921 
	C177.208679,675.977234 180.507767,676.355042 184.021225,680.024963 
	C187.236557,683.383484 185.546234,686.394409 182.776703,688.537964 
	C176.324768,693.531738 174.529053,701.567200 169.733017,707.608276 
	C168.942719,708.603699 169.703766,709.850098 170.032730,710.959290 
	C171.999847,717.591492 180.419250,723.851440 187.244080,724.979492 
	C194.797211,726.227966 200.422485,721.893127 206.017899,718.731506 
	C212.018295,715.341248 217.576630,710.933167 221.939819,704.890625 
	C225.796997,699.548706 228.988831,694.031799 231.531631,688.109070 
	C233.767593,682.900940 233.428375,677.682434 229.190338,672.898254 
z"/>
<path fill="#000000" opacity="1.000000" stroke="none" 
	d="
M567.625793,132.647064 
	C571.867249,121.583466 575.807617,110.785080 584.614014,102.757668 
	C591.077820,96.865631 599.045044,93.170853 607.282654,92.226295 
	C617.862061,91.013222 627.986450,94.129036 635.924927,102.117729 
	C637.780151,103.984734 638.892883,106.299973 639.051880,108.765564 
	C639.258423,111.968430 640.661438,114.397850 642.597229,116.804932 
	C645.825317,114.763809 645.079102,110.261856 648.281250,107.963844 
	C651.271545,109.754944 652.006165,112.222176 650.563232,115.120476 
	C645.896179,124.494484 641.067261,133.781906 636.830811,143.372574 
	C635.133606,147.214905 631.589050,148.021088 628.072510,146.024963 
	C624.432861,143.958984 623.990601,140.962433 625.929199,137.545242 
	C629.848389,130.637039 630.039429,122.645836 632.503052,115.315651 
	C633.095581,113.552673 631.747803,112.079826 630.682190,110.861626 
	C626.247253,105.791710 614.125000,101.190468 606.419617,104.624947 
	C603.058228,106.123184 600.423279,109.440437 597.976501,112.197113 
	C592.894836,117.922401 587.423218,123.359695 584.999390,131.260986 
	C582.950623,137.939316 580.548218,144.384628 580.201965,151.463684 
	C579.630127,163.151688 583.909607,166.317780 595.580994,169.916061 
	C606.753906,173.360641 611.955322,165.676544 617.119873,158.079254 
	C620.498718,153.108734 622.945312,152.647888 627.180847,156.051971 
	C629.152100,157.636292 629.984802,159.750290 629.002136,161.792236 
	C624.406433,171.342484 620.483215,181.429672 608.623535,184.801147 
	C604.151428,186.072510 599.994995,186.242447 595.439575,185.682449 
	C583.534485,184.218933 574.342224,178.030838 568.206177,168.437042 
	C564.062866,161.958878 562.812805,153.790543 564.009644,145.814163 
	C564.665161,141.445496 564.513977,136.773285 567.625793,132.647064 
M586.571838,111.624191 
	C587.153320,114.989365 588.897888,112.839615 589.826111,112.105286 
	C592.239563,110.196045 589.918091,109.346573 588.876587,107.671806 
	C587.968933,109.149895 587.378906,110.110764 586.571838,111.624191 
z"/>
<path fill="#000000" opacity="1.000000" stroke="none" 
	d="
M254.580704,780.599670 
	C252.954544,783.538025 251.471390,786.244995 249.890793,789.129761 
	C246.560349,787.573181 245.308228,785.337280 246.845734,782.268372 
	C251.611847,772.755371 257.068726,763.599121 260.816101,753.564209 
	C262.109772,750.100037 266.409821,749.297974 269.781158,751.269836 
	C273.153320,753.242126 273.889954,756.448669 271.841431,759.361389 
	C267.127747,766.063721 268.220184,774.420349 264.986023,781.564819 
	C264.003845,783.734375 266.648590,786.554199 268.886871,788.021790 
	C275.103119,792.097717 281.725159,795.194214 289.397247,792.709106 
	C295.464325,790.743958 299.329498,785.640991 303.359100,781.242493 
	C308.592896,775.529358 312.163147,768.633606 314.514648,761.056396 
	C316.362030,755.103638 317.381073,749.019714 317.535522,742.967468 
	C317.751282,734.513000 311.191956,729.054993 302.540741,727.069824 
	C291.145325,724.455017 285.725464,731.223694 280.489136,739.100342 
	C276.969208,744.395203 274.307922,744.667603 269.801208,740.324951 
	C268.023285,738.611633 267.488525,736.734131 268.765350,734.500366 
	C271.240509,730.169983 273.507385,725.704285 276.226654,721.533325 
	C281.088013,714.076782 289.064209,710.122375 297.028290,710.806763 
	C307.161407,711.677429 317.329254,714.261780 325.036926,722.900391 
	C332.180115,730.906189 333.972870,739.719299 333.582977,749.819397 
	C332.997620,764.982361 325.012299,777.249756 317.808319,789.599731 
	C314.162842,795.849243 307.235413,799.905640 300.072388,801.836182 
	C295.680695,803.019836 291.825989,806.204041 286.778168,805.320374 
	C278.752106,803.915344 270.686127,802.869751 264.175262,797.231140 
	C261.432739,794.855957 259.107513,792.130188 258.946808,788.485596 
	C258.795349,785.050598 256.564850,782.715088 255.451462,779.817139 
	C255.450333,779.814270 255.151871,779.887939 255.032516,779.978760 
	C254.904755,780.075928 254.824631,780.235779 254.580704,780.599670 
M307.498016,785.359436 
	C306.520630,787.102417 307.662903,787.924683 309.072693,788.927124 
	C310.084045,787.252075 311.557953,785.951660 311.202454,783.862305 
	C309.604340,783.407104 308.827698,784.356689 307.498016,785.359436 
z"/>
<path fill="#000000" opacity="1.000000" stroke="none" 
	d="
M456.596191,112.756424 
	C453.282104,94.616562 463.048828,81.211319 471.456421,67.392761 
	C472.846527,65.107971 475.710388,64.959274 477.953857,63.930901 
	C483.574097,61.354622 489.451355,59.448280 495.527435,58.570347 
	C507.312073,56.867580 515.269592,63.401386 522.171570,71.785927 
	C531.956116,83.672211 532.481018,97.602356 530.892395,111.952507 
	C530.219788,118.028305 530.520264,124.466759 527.108093,129.810349 
	C522.016479,137.784103 518.020813,146.663788 510.126587,152.532227 
	C504.489197,156.722992 497.640381,155.395935 491.355591,155.905441 
	C479.267609,156.885437 469.017639,152.536819 462.623291,141.877701 
	C457.397247,133.166092 455.802399,123.340576 456.596191,112.756424 
M516.602905,88.076263 
	C515.283447,84.852135 514.081970,81.572922 512.609253,78.420425 
	C511.311371,75.642372 509.191986,73.670395 506.291748,72.355476 
	C496.449921,67.893394 481.764740,72.516479 477.833740,81.636292 
	C472.701935,93.542030 467.156738,105.400230 469.348907,119.052826 
	C470.798676,128.081650 472.363495,136.946396 481.691132,141.541718 
	C488.146667,144.722076 495.425995,146.070602 501.636292,142.806915 
	C509.263550,138.798584 512.449768,130.233078 515.201050,122.643509 
	C519.126831,111.813866 519.742065,100.299362 516.602905,88.076263 
z"/>
<path fill="#000000" opacity="1.000000" stroke="none" 
	d="
M370.007416,768.272095 
	C373.677185,760.341431 379.926331,754.535095 383.698761,747.103882 
	C384.034210,746.443115 384.944397,746.037781 385.643341,745.603333 
	C397.596527,738.173279 418.644257,739.892822 429.506500,748.737244 
	C438.235718,755.844910 439.988525,765.776001 441.142151,775.878357 
	C441.873993,782.287048 441.540863,788.824890 441.644714,795.289551 
	C441.708099,799.232544 440.266388,803.485657 438.496002,807.108459 
	C435.460999,813.319214 432.727966,819.678101 428.860657,825.542358 
	C426.186829,829.596741 423.155762,832.239319 418.708832,833.669922 
	C413.503143,835.344604 408.419647,837.473450 403.131195,838.798950 
	C395.565887,840.695068 388.957367,837.408508 383.397308,832.958069 
	C373.295990,824.872864 366.709503,814.556091 366.746857,801.019287 
	C366.759125,796.572510 366.198486,792.178467 366.564667,787.668274 
	C367.091156,781.183655 367.418396,774.752930 370.007416,768.272095 
M416.482849,820.030151 
	C418.651611,817.707031 420.782745,815.289185 421.658569,812.188416 
	C425.154938,799.809387 431.067719,788.111084 428.016113,774.259766 
	C425.940613,764.839172 421.579132,756.433838 412.210907,754.001526 
	C406.863403,752.613098 400.736420,751.042236 395.379822,754.572937 
	C388.663177,758.999939 385.350861,766.363464 382.727509,773.247131 
	C378.376831,784.663208 377.598694,796.786377 381.230988,808.883545 
	C383.767670,817.331970 386.816254,825.364380 397.086670,826.362122 
	C403.991028,827.032776 410.490509,825.067200 416.482849,820.030151 
z"/>
<path fill="#000000" opacity="1.000000" stroke="none" 
	d="
M304.203735,165.838745 
	C304.385803,167.607300 304.450043,168.948959 304.773895,170.224731 
	C307.151306,179.589355 304.071503,186.827866 296.942505,193.154221 
	C292.704865,196.914764 288.251831,200.344757 283.848389,203.866577 
	C278.326813,208.282639 264.039825,208.568283 256.714386,203.804703 
	C249.915970,199.383820 243.128860,194.862579 238.260712,188.014694 
	C234.174194,182.266266 228.422180,177.860458 225.975266,170.749207 
	C222.832703,161.616318 220.699600,152.344360 219.824707,142.765305 
	C219.726807,141.693344 220.246475,140.486755 220.721359,139.453644 
	C223.438614,133.542023 227.029404,128.120499 230.702545,122.798523 
	C236.321014,114.657974 251.704224,110.892433 261.279877,113.331459 
	C276.437775,117.192345 285.897705,127.335243 294.388977,139.427124 
	C299.956818,147.355927 304.620544,155.328094 304.203735,165.838745 
M259.965118,125.409210 
	C257.172119,124.287888 254.146042,123.181641 251.281906,123.759079 
	C239.997742,126.034088 231.486176,138.455597 233.920395,148.974838 
	C237.383743,163.941406 242.952255,177.961411 255.753998,187.892944 
	C263.611816,193.989014 272.148163,195.295776 280.924530,191.156769 
	C285.220856,189.130539 290.250214,186.518951 291.562256,181.322983 
	C293.834045,172.326065 291.555908,163.499252 288.301361,155.181122 
	C283.066895,141.802689 273.621490,132.026138 259.965118,125.409210 
z"/>
<path fill="#000000" opacity="1.000000" stroke="none" 
	d="
M624.852051,779.281128 
	C617.600037,776.222900 613.108459,770.291138 608.746643,764.862549 
	C603.625977,758.489502 598.213867,752.062439 595.561462,743.874451 
	C592.802612,735.357788 593.256165,726.501343 592.221008,717.840088 
	C591.753052,713.924500 594.762634,709.484192 597.979980,706.557190 
	C603.622681,701.423706 609.143005,695.682739 615.774414,692.234070 
	C623.284058,688.328857 631.919556,688.855469 639.830505,692.761475 
	C646.787109,696.196289 652.602356,701.219788 657.614807,707.017761 
	C660.554199,710.417786 663.926819,713.465271 666.566528,717.048645 
	C670.231384,722.023376 672.671753,727.681152 673.906555,733.946106 
	C661.011780,735.057434 653.478821,728.690430 653.060913,716.785400 
	C648.602539,716.240051 645.698242,713.014709 642.590393,710.073364 
	C631.233459,699.324890 617.001648,702.726929 607.221924,712.788574 
	C606.069763,713.973999 606.181335,715.530518 605.970520,717.000732 
	C605.587646,719.671082 605.167908,722.337097 601.819946,723.740540 
	C605.766846,725.759460 606.488831,729.417419 607.109009,732.886353 
	C610.458313,751.620117 621.597351,764.203918 638.399353,771.920898 
	C647.592529,776.143188 655.892517,771.235962 661.538696,761.237976 
	C665.044434,755.030212 664.400696,748.467224 662.655273,741.891907 
	C662.207703,740.206116 660.639648,738.739014 661.574158,736.773560 
	C671.640320,735.175049 676.108765,738.897827 677.413330,748.543640 
	C678.112000,753.709717 676.966736,757.847412 674.553284,762.203979 
	C671.804077,767.166443 668.903687,772.074524 665.239868,776.304077 
	C657.783997,784.911133 647.807312,785.581970 637.411194,783.701843 
	C633.148254,782.930847 629.086121,781.371887 624.852051,779.281128 
z"/>
<path fill="#000000" opacity="1.000000" stroke="none" 
	d="
M102.373718,400.918030 
	C117.092239,400.877686 128.866852,410.431244 131.236969,423.923096 
	C133.551025,437.095825 125.821877,450.248932 112.116951,454.379974 
	C98.728920,458.415436 85.305473,451.927582 79.512131,438.661407 
	C72.280052,422.100708 83.476013,403.984375 102.373718,400.918030 
z"/>
<path fill="#000000" opacity="1.000000" stroke="none" 
	d="
M821.126587,461.393311 
	C823.318237,475.425354 818.187378,485.550323 806.113953,491.931610 
	C796.443298,497.042877 784.645203,495.028534 776.559326,487.403656 
	C767.557190,478.914764 764.952087,467.164703 769.713745,456.527374 
	C774.292664,446.298340 784.778625,439.752930 795.629578,440.483887 
	C798.260315,440.661102 800.916199,440.707184 803.467285,441.756836 
	C806.406006,442.966003 809.310730,443.976379 807.638550,448.171448 
	C817.859009,446.922028 817.274963,456.148132 821.126587,461.393311 
z"/>
<path fill="#000000" opacity="1.000000" stroke="none" 
	d="
M500.951660,180.663910 
	C501.785187,184.042023 499.925659,183.763138 497.992523,183.282333 
	C496.562531,182.926666 495.424286,182.129623 496.382935,180.539368 
	C497.643921,178.447693 499.256439,178.853653 500.951660,180.663910 
z"/>
<path fill="#000000" opacity="1.000000" stroke="none" 
	d="
M271.835632,514.881592 
	C278.411377,516.334167 284.776031,515.450378 291.103668,516.179016 
	C289.256989,522.473022 284.929230,525.376038 276.926270,525.126770 
	C266.011627,524.786560 255.162979,523.332336 244.514481,520.904541 
	C232.315826,518.123413 220.491501,514.116943 209.196823,508.659088 
	C208.025558,508.093079 206.651230,507.715027 206.410294,506.119812 
	C212.712631,500.445251 222.937134,501.509277 234.031784,508.981812 
	C235.110062,510.983917 231.769928,511.896545 233.172073,514.627563 
	C239.614609,508.805481 245.992615,511.401154 253.130539,513.788940 
	C258.705963,515.654053 265.253540,514.612915 271.835632,514.881592 
z"/>
</svg>