<svg version="1.1" id="Layer_1" xmlns="http://www.w3.org/2000/svg" xmlns:xlink="http://www.w3.org/1999/xlink" x="0px" y="0px"
	 width="100%" viewBox="0 0 896 896" enable-background="new 0 0 896 896" xml:space="preserve">
<path fill="#000000" opacity="1.000000" stroke="none" 
	d="
M379.964478,888.308594 
	C359.491333,884.470093 339.524414,880.410400 320.050720,874.209045 
	C301.800873,868.397400 283.805145,861.936157 266.545013,853.595337 
	C249.495560,845.356384 232.856216,836.415527 216.848145,826.206177 
	C201.105453,816.165955 185.918381,805.430664 171.695282,793.390869 
	C155.227005,779.450439 139.614990,764.630615 125.159355,748.517273 
	C110.698792,732.398315 97.298187,715.507141 85.631638,697.344849 
	C74.540527,680.078369 64.216469,662.322144 55.569447,643.622070 
	C48.450100,628.225769 41.840618,612.647766 36.527214,596.549377 
	C29.868425,576.374878 24.602940,555.810303 20.868015,534.902527 
	C18.714922,522.849670 16.508478,510.693726 15.904648,498.505981 
	C15.192029,484.122498 13.374109,469.799683 14.176336,455.269043 
	C14.805401,443.874939 14.848742,432.404449 15.682343,421.007874 
	C16.675438,407.430695 18.716343,393.946014 21.202227,380.567657 
	C23.317350,369.184601 25.572689,357.773407 28.751942,346.656616 
	C32.373337,333.993866 35.211952,321.144958 39.773743,308.673981 
	C46.590336,290.038879 53.240513,271.326996 62.086048,253.602921 
	C69.042084,239.664917 76.882385,226.105377 85.550758,213.081680 
	C88.219170,209.072571 91.018433,205.358307 94.456139,201.877075 
	C98.338585,197.945450 99.677193,192.028152 103.311722,187.573074 
	C108.741669,180.917267 112.827553,173.082245 120.582855,168.565811 
	C123.355835,166.950897 123.161102,163.609116 124.874336,161.494629 
	C130.833038,154.140381 137.219116,147.202286 144.176880,140.716125 
	C149.622818,135.639313 154.899261,130.357346 160.363419,125.275299 
	C171.200439,115.196098 182.804092,106.148140 194.779907,97.435425 
	C204.062149,90.682350 213.486557,84.225906 223.056641,77.904694 
	C235.289429,69.824730 248.347992,63.337349 261.425293,56.896305 
	C283.374695,46.085434 306.033417,36.855602 329.575867,30.203579 
	C349.314667,24.626286 369.371643,20.289148 389.784546,17.564962 
	C406.575073,15.324202 423.437286,14.703800 440.262085,13.341877 
	C452.154236,12.379244 463.785278,13.697884 475.517212,13.873256 
	C487.235565,14.048425 498.885284,16.013020 510.559235,17.262106 
	C531.137329,19.463915 551.002869,24.828632 570.895691,29.956842 
	C579.288513,32.120445 587.538269,35.343815 595.766968,38.326923 
	C605.423523,41.827660 614.864441,45.818863 624.474426,49.390877 
	C634.818359,53.235699 644.282776,58.780991 654.040771,63.741241 
	C668.125732,70.900978 681.532532,79.256752 694.607727,88.132210 
	C706.304565,96.071976 717.432312,104.748856 728.359375,113.714836 
	C736.857483,120.687767 745.110352,127.925224 752.840637,135.715073 
	C766.396057,149.375183 779.583618,163.362427 792.017334,178.097015 
	C815.655273,206.108902 834.871643,236.915802 850.416504,269.956421 
	C857.827454,285.708344 864.089783,302.071350 869.805176,318.528168 
	C874.467529,331.953033 877.109009,346.044189 880.674744,359.822540 
	C884.940186,376.304962 886.203369,393.175751 888.993713,409.829315 
	C890.600525,419.419373 889.731323,429.399414 890.452209,439.168823 
	C891.428223,452.397644 891.022156,465.608307 890.225098,478.790161 
	C889.475647,491.184509 887.904480,503.515198 886.215698,515.839783 
	C884.683228,527.023438 882.092407,537.977234 880.169495,549.067444 
	C879.013733,555.732788 876.724731,562.211914 874.792786,568.729614 
	C872.395325,576.817932 869.799927,584.847290 867.368042,592.925659 
	C865.741699,598.328064 863.437439,603.383911 860.987305,608.479004 
	C858.600464,613.442444 857.221008,618.920410 854.979431,624.089355 
	C840.602722,657.241028 822.006958,687.861511 800.296692,716.641357 
	C787.793762,733.215637 773.645020,748.315918 759.256836,763.295288 
	C746.645020,776.425293 732.778931,787.995789 718.879272,799.530701 
	C698.383484,816.539368 675.547852,830.240234 652.180054,842.856445 
	C633.638245,852.867065 614.184753,861.063721 594.299072,868.168030 
	C578.966003,873.645813 563.193848,877.501526 547.508484,881.754089 
	C532.068115,885.940125 516.312805,888.125854 500.585205,890.313538 
	C476.822296,893.618896 452.842926,893.885803 428.874664,893.213684 
	C416.921906,892.878479 405.036316,891.916870 393.246765,889.677917 
	C389.054932,888.881897 384.624634,889.452881 379.964478,888.308594 
M751.796875,146.705414 
	C744.747437,140.629410 737.875793,134.330978 730.610413,128.525238 
	C716.853333,117.532082 703.367249,106.198982 688.155396,97.097168 
	C679.227600,91.755356 670.501892,85.851898 661.478088,80.858131 
	C651.896790,75.555824 641.477173,71.580841 631.997986,65.852814 
	C630.947571,65.218086 629.786133,65.029968 628.989746,66.448128 
	C629.280090,68.728592 631.439636,68.890251 632.881836,69.845810 
	C640.039185,74.588326 648.705811,76.789841 655.042480,82.891045 
	C658.054688,85.791290 661.402771,88.118843 664.970337,90.305199 
	C675.419189,96.708633 686.284363,102.442276 695.782410,110.383385 
	C700.828125,114.602013 706.549744,119.788727 712.084106,121.164085 
	C717.831787,122.592430 719.182617,125.652802 721.528503,129.279633 
	C722.149231,130.239380 723.247986,130.901779 722.653442,132.537704 
	C719.623840,133.933304 718.001221,131.329941 716.071106,129.845535 
	C710.420898,125.500122 705.129211,120.621361 699.179810,116.745667 
	C685.446533,107.799278 672.136780,98.147659 657.634888,90.435890 
	C646.695496,84.618530 636.171082,77.995110 624.621155,73.342056 
	C614.038757,69.078766 603.660034,64.238342 592.879639,60.568436 
	C587.570618,58.761120 583.905457,54.519112 578.499084,53.050858 
	C561.521423,48.440090 544.502502,44.146229 527.180237,40.912235 
	C506.591339,37.068371 485.803528,35.016949 464.993805,33.586422 
	C444.265503,32.161495 423.401337,32.752373 402.822601,35.814747 
	C381.504852,38.987099 360.237610,42.798840 339.590179,49.213623 
	C317.527191,56.068199 296.170044,64.770477 275.410034,74.899879 
	C254.463760,85.120155 234.633133,97.208496 215.637054,110.716194 
	C195.561020,124.991806 176.950256,140.971069 159.390961,158.211014 
	C156.435974,161.112259 153.308746,163.861786 150.570663,166.955383 
	C144.521515,173.789948 138.477829,180.615356 132.752457,187.754562 
	C121.839790,201.362015 111.246513,215.130615 102.127975,230.041840 
	C94.804779,242.017197 87.554802,254.020660 81.620773,266.744934 
	C66.184975,299.843750 54.399773,334.205170 46.857094,369.954712 
	C43.568943,385.539368 41.388054,401.296967 40.138050,417.214691 
	C39.615719,423.866180 40.040981,430.537506 39.271179,437.103851 
	C37.879757,448.972504 38.115917,460.827301 38.402760,472.708588 
	C38.450874,474.701569 39.365673,476.486084 39.313709,478.577515 
	C38.979465,492.030487 40.457382,505.364624 42.130074,518.693237 
	C42.474957,521.441406 43.835262,525.120911 40.746494,526.943054 
	C37.606911,528.795166 37.841473,531.138550 38.434525,533.761841 
	C39.928139,540.368591 41.995701,546.874939 43.027390,553.546204 
	C43.702908,557.914368 45.048271,561.873901 46.847271,565.796204 
	C47.557358,567.344421 48.140980,569.118164 50.375755,568.365906 
	C53.573303,567.289490 53.837471,569.349182 54.471107,571.635010 
	C57.960693,584.223694 61.788120,596.697876 66.683243,608.842163 
	C67.829285,611.685364 70.318886,614.661133 69.434952,617.673462 
	C68.094109,622.243042 69.284302,626.066223 71.141449,629.932190 
	C80.635315,649.695068 91.831787,668.504211 103.620468,686.951599 
	C108.355621,694.361389 113.732132,701.371460 119.022659,708.408691 
	C120.269012,710.066467 121.126961,712.882690 124.108437,712.283325 
	C126.500229,711.802429 126.842903,712.465149 126.512299,714.790405 
	C126.104599,717.657837 127.069939,720.033020 130.690872,719.864990 
	C131.728561,719.816833 132.649429,719.822144 133.265610,720.889648 
	C136.013840,725.651062 141.851517,728.335571 142.415314,734.602295 
	C142.510773,735.663391 143.437286,736.313416 144.640228,736.049438 
	C146.418900,735.658997 147.841782,736.840515 148.495071,737.896912 
	C154.158920,747.056213 165.857224,751.259460 168.791901,762.644836 
	C168.978104,763.367188 169.759705,764.001648 170.385544,764.534668 
	C174.667038,768.180908 178.975571,771.795532 183.287552,775.405762 
	C184.699646,776.588135 186.112045,777.577576 188.186264,777.460754 
	C190.432907,777.334167 192.223984,778.608582 193.999878,779.958801 
	C206.227249,789.255493 218.209259,798.885620 230.960114,807.476562 
	C234.243103,809.688416 237.558533,811.877808 241.008575,813.810791 
	C247.661819,817.538330 254.490250,820.954834 261.122040,824.718750 
	C272.580688,831.222107 284.379761,837.050903 296.851013,841.245544 
	C309.162384,845.386475 320.178467,853.215698 333.615082,854.151611 
	C334.913055,854.242004 336.175049,854.856934 337.452545,855.232544 
	C343.497742,857.009827 349.449371,859.262634 355.606049,860.471863 
	C370.077454,863.314331 384.600891,865.969849 399.188843,868.120239 
	C415.098999,870.465454 431.103943,872.000977 447.199707,872.804077 
	C455.533234,873.219849 463.974457,873.137085 472.215057,875.936951 
	C475.761688,877.141907 481.455627,876.853760 484.127075,874.702332 
	C488.376831,871.279968 492.883118,871.348816 497.419556,870.659729 
	C517.407227,867.623474 537.634949,865.996033 557.076355,859.862976 
	C560.175171,858.885437 563.684265,857.710571 566.836792,859.323730 
	C569.945801,860.914673 572.689148,859.939331 575.492188,859.069153 
	C578.970276,857.989319 582.357971,856.617004 585.781250,855.361816 
	C604.061340,848.659241 621.779175,840.693176 639.501160,832.625793 
	C653.145020,826.414795 663.746277,816.340820 675.872437,808.240417 
	C691.537598,797.775696 705.671936,785.006592 722.852844,776.826538 
	C728.398010,774.186340 731.725037,769.022705 736.319763,765.308960 
	C737.252808,764.554810 737.950928,763.560486 737.939453,762.322510 
	C737.911560,759.313904 739.811096,757.477600 741.771790,755.615601 
	C759.865356,738.432983 776.545593,720.043518 791.481995,699.980164 
	C804.617676,682.335693 816.067566,663.697327 826.844666,644.600586 
	C829.700073,639.540771 833.830811,635.296265 835.861877,629.718994 
	C839.148010,620.695190 842.423340,611.676941 845.520142,602.581726 
	C849.369019,591.277649 853.479492,580.044189 856.794067,568.575500 
	C865.446289,538.638977 870.136963,508.020386 871.591431,476.911133 
	C872.482727,457.846649 873.151001,438.778748 871.549927,419.703461 
	C871.148071,414.915405 871.768250,410.031311 871.240417,405.266479 
	C870.394287,397.626343 870.782471,390.049225 870.946533,382.411957 
	C871.062744,376.998596 871.227112,370.937805 865.500122,367.271698 
	C864.425598,366.583862 863.788879,365.349518 863.501709,363.933014 
	C859.211731,342.768372 853.915039,321.925995 845.280334,302.000580 
	C843.556763,298.023254 840.495667,293.930786 841.818909,289.007629 
	C842.815063,288.690430 844.025146,289.794312 844.583496,287.918945 
	C842.767456,282.165802 840.525635,276.288483 837.720581,270.619385 
	C829.478333,253.961670 821.510071,237.187790 811.554382,221.408554 
	C800.618225,204.075485 788.645935,187.547760 775.244385,172.077698 
	C767.861267,163.554901 759.993042,155.452332 751.796875,146.705414 
M39.934795,352.005890 
	C37.973186,356.414032 37.438080,361.002930 37.846584,365.722321 
	C41.068211,361.491974 41.121502,356.499420 41.651863,351.677734 
	C41.841541,349.953247 40.858124,350.201508 39.934795,352.005890 
z"/>
<path fill="#000000" opacity="1.000000" stroke="none" 
	d="
M694.527344,340.510864 
	C699.456482,348.337280 701.856079,356.841522 704.710571,365.123444 
	C708.915955,377.324707 711.822937,389.941742 714.013611,402.603668 
	C716.585999,417.471588 717.628967,432.564789 717.504944,447.728027 
	C717.450867,454.343231 716.955078,460.829071 714.639160,466.938049 
	C713.569763,469.758881 713.563416,471.551178 715.713318,473.500427 
	C716.507385,474.220398 716.441589,475.308472 716.279724,476.326202 
	C712.759338,498.456390 708.025574,520.283142 701.267151,541.695007 
	C691.593933,572.341736 675.805969,599.659485 656.118469,624.725952 
	C647.968079,635.103088 638.558167,644.470276 628.773376,653.537170 
	C611.919861,669.153992 593.324829,681.930298 573.169128,692.672302 
	C556.242126,701.693787 538.341492,708.085632 519.859985,713.140808 
	C504.128754,717.443665 488.068817,719.887634 471.947083,721.068237 
	C457.091278,722.156189 442.068268,722.093140 427.162811,720.346008 
	C408.123779,718.114502 389.327179,714.901550 371.122192,708.550598 
	C346.067719,699.810242 322.625488,688.138306 300.992981,672.665710 
	C284.826691,661.102844 269.860779,648.160217 256.467407,633.625366 
	C243.878815,619.963989 232.434021,605.330750 223.068634,589.030762 
	C213.924637,573.116089 206.106400,556.654541 200.009140,539.466736 
	C193.463486,521.014893 188.615601,501.874695 186.938690,482.400513 
	C185.507050,465.774597 185.019119,449.002808 186.378159,432.148010 
	C188.167023,409.962585 192.569931,388.473145 199.789459,367.571136 
	C203.624344,356.468323 207.896500,345.501129 213.434036,334.987823 
	C219.163513,324.110138 225.038834,313.298553 231.516724,302.909332 
	C238.541733,291.642609 247.171402,281.448883 256.088623,271.526550 
	C271.413605,254.474274 288.755310,239.702988 307.804718,227.187592 
	C328.369873,213.676376 350.482300,203.006653 374.116882,195.676453 
	C394.531616,189.344879 415.487793,185.459641 436.657898,183.806870 
	C449.607819,182.795868 462.797974,183.086838 475.938599,184.324188 
	C487.847961,185.445572 499.576782,187.206284 511.249420,189.576782 
	C524.421387,192.251755 537.158081,196.292908 549.724487,201.143753 
	C569.232483,208.674164 587.388000,218.668427 604.665222,230.244324 
	C610.334106,234.042511 616.617126,237.642075 619.844971,244.318924 
	C620.241150,245.138458 621.135376,246.120743 621.942871,246.275467 
	C629.995667,247.818420 634.295044,254.470581 639.450928,259.592346 
	C651.815369,271.874847 662.809937,285.441925 672.894958,299.630096 
	C677.429993,306.010162 681.463379,312.959778 684.084778,320.486572 
	C685.326294,324.051331 688.462158,326.251160 689.995422,329.662994 
	C691.561096,333.146576 692.876831,336.703156 694.527344,340.510864 
M520.496277,694.691406 
	C536.180054,691.231567 550.629028,684.519226 565.056885,677.757202 
	C581.982727,669.824402 597.844604,660.094299 612.467896,648.497559 
	C620.784546,641.902222 628.965759,634.973206 636.246216,627.283936 
	C642.479248,620.700928 647.923340,613.273682 653.719177,606.247986 
	C661.143311,597.248474 667.141357,587.446655 673.133728,577.559326 
	C678.502869,568.700256 681.696716,558.836975 686.210876,549.601501 
	C692.144287,537.462341 697.072693,525.033020 699.660767,511.766144 
	C702.744568,495.957581 704.976685,480.076782 706.010254,463.933075 
	C706.627563,454.290833 706.653015,444.702972 705.927673,435.222565 
	C705.110962,424.548798 703.041870,413.881348 700.542542,403.444672 
	C695.578552,382.716309 689.514709,362.308533 678.661987,343.696808 
	C672.065674,332.384644 665.606201,321.024872 657.950500,310.329987 
	C644.990662,292.225281 629.383240,276.759674 612.714233,262.168091 
	C598.864502,250.044418 583.351013,240.480469 566.987671,232.435089 
	C551.543274,224.841553 535.409119,218.681671 518.652222,214.458466 
	C507.566193,211.664444 496.508270,208.694687 485.028717,207.770218 
	C478.568207,207.249939 472.104187,206.753342 465.649323,206.217789 
	C448.536194,204.797989 431.545654,205.535431 414.619324,208.119690 
	C409.594727,208.886810 408.344757,208.156708 408.030518,202.240677 
	C359.292572,210.174927 316.657867,230.388168 280.219727,263.503754 
	C256.344482,285.201935 230.337234,319.324677 231.371948,328.449493 
	C239.419998,316.450592 244.741318,303.454590 256.604034,295.773224 
	C253.062958,302.491180 248.168137,308.238770 243.785904,314.298126 
	C237.064301,323.592163 231.251770,333.425079 226.257141,343.608734 
	C218.699814,359.017517 212.471146,374.981232 207.142334,391.415314 
	C201.485245,408.861816 199.281570,426.742432 197.567444,444.622986 
	C195.108200,470.276215 200.244812,495.548950 205.153168,520.619019 
	C207.547211,532.846924 212.778091,544.311035 217.405121,555.865295 
	C219.554062,561.231384 222.810303,566.148499 225.059021,571.482239 
	C226.724670,575.432983 231.281387,575.787659 233.266418,578.908203 
	C238.442596,587.045288 244.620636,594.444641 250.050613,602.373169 
	C251.876251,605.038879 254.918747,607.290955 255.127716,611.020752 
	C252.570633,611.688782 252.426315,608.559814 250.403030,608.611023 
	C251.697037,614.636719 257.322083,616.947021 260.739258,621.187439 
	C264.391876,618.724731 266.401581,621.750122 268.646912,623.705872 
	C276.157654,630.248047 282.236755,638.319275 290.295227,644.264832 
	C300.979797,652.147949 311.499451,660.292603 323.132751,666.786682 
	C331.115509,671.242920 338.351044,676.959961 346.714417,680.759094 
	C361.438873,687.447937 376.876007,692.163574 392.448456,696.249146 
	C406.045197,699.816345 419.788635,703.189453 433.989441,703.460999 
	C450.433441,703.775452 466.878601,703.936646 483.244354,701.775757 
	C495.532593,700.153259 507.855804,698.737732 520.496277,694.691406 
M581.336548,677.987549 
	C571.142395,684.315918 558.829712,686.928162 549.851379,695.449219 
	C554.370850,695.492798 557.946228,692.889221 562.366699,692.458008 
	C566.571960,692.047668 568.703064,687.048889 572.896729,685.413208 
	C576.876526,683.860962 580.430786,681.223694 584.186218,679.088257 
	C587.725464,677.075745 592.124207,676.159363 594.099365,671.471741 
	C588.673096,671.529663 585.994934,675.861084 581.336548,677.987549 
M296.028870,653.494629 
	C284.633606,642.994263 281.434906,640.716003 278.344421,640.898987 
	C284.226837,648.745911 301.346497,662.551270 309.621338,665.858887 
	C306.063599,660.416748 299.805450,658.793091 296.028870,653.494629 
M497.525330,709.387451 
	C499.895233,711.895508 502.342743,711.173950 504.935486,709.799133 
	C502.601532,705.340637 500.945923,705.146179 497.525330,709.387451 
z"/>
<path fill="#000000" opacity="1.000000" stroke="none" 
	d="
M219.357361,279.512421 
	C217.064484,295.092316 207.427414,306.045837 196.806198,315.630035 
	C190.143021,321.642639 180.647339,323.034576 171.688263,319.842773 
	C166.410172,317.962341 160.571289,319.191162 155.535034,315.757507 
	C151.845520,313.242065 148.297623,309.739502 143.183746,309.962067 
	C142.905777,309.974152 142.513809,309.714172 142.341431,309.465424 
	C135.635895,299.789948 123.626625,295.342773 117.616516,285.407013 
	C114.315971,279.950653 111.736977,273.762573 112.736450,265.949554 
	C113.615318,259.079285 114.776260,252.837006 117.997871,246.861206 
	C121.059700,241.181793 124.888542,235.952652 129.099243,231.168533 
	C133.930511,225.679276 141.157715,225.059189 147.901535,223.173294 
	C156.799957,220.684891 163.760330,225.910294 171.665619,226.979172 
	C178.044846,227.841705 181.913010,232.840240 187.433533,234.870224 
	C194.962158,237.638611 200.632141,243.495728 205.133682,249.179764 
	C211.957504,257.796112 220.470276,266.429596 219.357361,279.512421 
M154.146378,246.426270 
	C149.754410,245.566528 145.387817,246.499878 141.020935,246.526077 
	C134.426865,246.565643 127.087723,252.369675 127.519859,258.930939 
	C127.992691,266.109802 130.150223,272.907227 137.020981,276.869720 
	C139.091309,278.063721 140.295197,279.780792 141.765518,281.588562 
	C145.654968,286.370544 152.265411,287.547272 156.873306,291.615356 
	C157.339752,292.027130 158.771805,291.388336 159.742355,291.175812 
	C161.191147,290.858551 162.268875,291.218964 163.175491,292.488983 
	C169.150177,300.858429 177.654739,302.758179 187.144577,301.294647 
	C194.384750,300.178040 199.546310,290.536163 198.410141,283.383728 
	C197.552872,277.987152 193.242294,273.678650 194.222229,267.819305 
	C194.458420,266.407104 192.967255,264.706268 191.499542,264.629150 
	C186.552536,264.369202 183.979050,260.081879 180.414291,257.825256 
	C172.387039,252.743683 164.483795,248.060791 154.146378,246.426270 
M180.889984,238.582108 
	C178.932709,237.264908 177.023773,235.313217 174.410172,238.122604 
	C176.853882,241.489288 180.063782,242.794418 184.032822,243.445557 
	C183.933762,241.123123 182.685272,240.066681 180.889984,238.582108 
M196.719894,253.691803 
	C197.647583,250.241745 195.029846,247.080811 190.774811,246.744919 
	C191.069519,250.296036 195.030991,250.767242 196.719894,253.691803 
z"/>
<path fill="#000000" opacity="1.000000" stroke="none" 
	d="
M749.569458,682.817383 
	C741.471130,682.484131 734.193481,679.815002 727.439697,676.785461 
	C722.784851,674.697449 718.321045,671.353882 713.627930,668.990540 
	C699.280273,661.765381 692.614746,648.189697 685.348145,635.279724 
	C681.728760,628.849548 685.870605,615.812012 691.818848,610.859863 
	C693.395020,609.547607 695.066711,608.119019 695.345093,606.174622 
	C695.877319,602.456909 698.036133,599.882263 700.283142,597.167725 
	C709.917480,585.529419 722.078857,581.934570 736.338623,586.750122 
	C739.980591,587.980042 744.023254,586.577881 747.534851,589.493835 
	C754.182922,595.014343 762.167725,598.646484 768.706604,604.534363 
	C772.149231,607.634155 776.231567,610.277222 780.023132,613.135925 
	C784.383789,616.423584 788.336121,619.749878 788.470642,625.807617 
	C788.491272,626.739502 788.949463,627.801453 789.526917,628.557617 
	C792.281433,632.164551 791.435608,636.085815 791.617615,640.263245 
	C792.157288,652.655518 784.832825,661.323120 778.467590,670.127502 
	C772.398132,678.522705 763.774658,683.938171 752.434998,682.388000 
	C751.646606,682.280151 750.797668,682.614502 749.569458,682.817383 
M758.624146,610.464478 
	C756.082581,608.966064 755.503418,604.087463 751.117737,605.752075 
	C754.033081,607.059570 755.558838,610.596680 759.370544,611.566772 
	C760.776672,614.469849 762.522766,616.927307 766.226746,616.912170 
	C766.760498,611.319092 765.076477,609.972778 758.624146,610.464478 
M742.940125,657.608765 
	C744.579529,657.785034 746.299988,657.700928 747.844299,658.182373 
	C754.641174,660.301086 761.541870,659.936890 768.022644,657.757751 
	C776.642944,654.859314 778.519897,647.867554 775.502808,640.767212 
	C774.922607,639.401672 774.234741,638.079712 773.697266,636.698486 
	C770.542725,628.592651 763.597961,623.863159 756.771423,619.796936 
	C752.643494,617.338196 748.532288,612.851868 742.551758,614.399109 
	C742.190796,614.492493 741.438171,613.692017 741.102478,613.159424 
	C739.336853,610.358459 736.356995,608.985901 733.841492,607.154419 
	C727.733154,602.707153 716.748413,602.373596 712.300232,606.266968 
	C704.127258,613.420654 703.673645,620.154175 707.517273,628.548645 
	C714.376404,643.528870 726.520386,652.686829 742.940125,657.608765 
M720.519226,662.219055 
	C719.705872,665.661682 723.648315,668.614258 728.577576,667.828918 
	C726.760071,664.785706 723.730408,663.827209 720.519226,662.219055 
M710.897766,656.125244 
	C709.412903,654.435486 708.542725,651.905945 705.288086,651.841675 
	C705.874268,654.673584 707.469055,656.344360 709.191711,657.792419 
	C710.224548,658.660645 711.474487,658.746338 710.897766,656.125244 
z"/>
<path fill="#000000" opacity="1.000000" stroke="none" 
	d="
M699.102661,720.919189 
	C702.062134,724.716797 705.528198,727.569763 708.105591,731.285156 
	C710.273865,734.410950 713.548523,734.393005 716.506287,732.293274 
	C720.096680,729.744324 722.691528,731.044739 725.101379,733.951904 
	C727.656311,737.033936 725.362244,738.867065 723.580872,741.208679 
	C718.418823,747.994446 712.026550,753.286560 704.623657,757.318481 
	C701.658142,758.933533 701.777893,762.564514 699.217407,764.238037 
	C691.199280,769.478516 682.760742,773.659485 672.982605,774.293884 
	C669.988647,774.488159 667.116455,774.243896 664.173889,773.156799 
	C660.482361,771.793091 657.292480,769.287170 653.068787,768.965332 
	C650.801270,768.792603 649.370300,766.242981 648.756470,763.937378 
	C647.439392,758.990051 646.308838,753.992737 645.117676,749.012207 
	C644.642639,747.026367 644.468872,745.009705 645.547424,743.175537 
	C647.558716,739.755310 646.758545,737.237610 643.407410,735.238831 
	C637.754944,731.867432 633.734192,726.665222 629.385254,721.946472 
	C625.317627,717.533081 621.321045,714.905212 614.924683,716.020203 
	C611.364258,716.640808 606.601013,717.888916 604.467529,712.859802 
	C602.354492,707.878845 606.653992,705.013489 609.042480,702.085022 
	C614.786804,695.042236 624.654785,696.385010 630.568481,703.093994 
	C636.559387,709.890564 642.984070,716.492004 650.582581,721.677979 
	C651.378296,722.221069 652.354309,722.628601 653.300781,722.800049 
	C657.513794,723.562927 667.936951,718.092102 669.658997,714.152100 
	C670.930481,711.243225 672.082336,708.189392 667.271179,707.540894 
	C668.233215,703.450928 665.123108,695.888611 661.569153,694.050720 
	C659.865967,693.169861 658.616150,692.316284 657.767273,690.527893 
	C655.937073,686.672180 652.878540,686.043945 649.582092,688.502991 
	C645.674011,691.418091 642.321899,690.044434 639.152100,687.570923 
	C635.550964,684.760742 635.100403,681.546265 638.198120,678.222961 
	C643.189575,672.867920 648.646729,667.938843 655.774475,665.534851 
	C657.689758,664.888855 658.630737,663.324341 660.102722,662.294312 
	C662.282471,660.768921 664.675293,660.071106 667.174561,661.078003 
	C669.700256,662.095520 669.345642,664.576050 669.407837,666.702881 
	C669.451477,668.196045 669.773560,669.961975 669.129517,671.149719 
	C664.271973,680.108521 671.076965,685.297241 675.031677,691.810608 
	C679.523560,699.208557 687.484558,703.493896 691.174988,711.643127 
	C692.684937,714.977356 696.685059,717.273315 699.102661,720.919189 
M695.694214,743.239441 
	C695.880737,741.123718 695.148010,739.356262 692.885498,739.358337 
	C689.792603,739.361084 688.956116,737.685120 688.509216,735.091003 
	C688.145081,732.977356 687.316833,730.947937 686.792114,728.856689 
	C686.029175,725.816101 683.290039,724.064331 681.269348,725.536560 
	C677.010193,728.639587 672.046875,730.821899 668.290161,734.242371 
	C666.371948,735.988892 664.717590,738.667664 662.548340,740.659180 
	C656.819641,745.918701 658.917725,758.305176 665.954285,761.285583 
	C671.676575,763.709351 678.945007,761.962585 683.095398,757.183716 
	C683.744141,756.436768 684.347778,755.302002 685.159302,755.100830 
	C691.087280,753.630859 693.629272,749.129028 695.694214,743.239441 
z"/>
<path fill="#000000" opacity="1.000000" stroke="none" 
	d="
M274.533630,202.250519 
	C267.496643,196.008026 260.718475,189.980591 253.980270,183.908829 
	C252.699371,182.754623 251.377167,181.789261 249.589966,181.850250 
	C245.507553,181.989578 234.510757,190.981735 233.269516,195.442337 
	C235.340210,196.222366 237.943771,196.632080 236.274231,200.311920 
	C235.649246,201.689468 237.377777,204.269485 238.285828,206.181274 
	C240.539612,210.926331 245.350586,213.458023 248.394897,217.588211 
	C249.917435,219.653793 252.151581,218.804535 254.139465,217.328094 
	C258.152679,214.347397 264.015411,215.455460 266.868835,219.909821 
	C269.595764,224.166656 266.823120,227.046509 263.719757,229.563644 
	C257.288300,234.780121 250.756348,239.849777 243.551895,244.007538 
	C241.191620,245.369690 238.890457,245.956955 236.506424,244.629395 
	C233.896713,243.176163 234.485809,240.410446 235.050583,238.362015 
	C235.791916,235.673203 235.208282,232.673096 237.073868,230.234558 
	C238.290680,228.644028 237.198456,227.037292 236.581711,225.525726 
	C233.058182,216.890060 227.108780,210.113907 220.025970,204.262039 
	C218.678070,203.148392 217.859329,201.785400 217.024628,200.352280 
	C212.647202,192.836487 206.659637,186.613419 200.805847,180.292908 
	C199.889664,179.303696 199.188354,178.268539 198.500565,177.116669 
	C195.568542,172.206329 191.778488,171.044312 186.806061,173.989700 
	C183.392181,176.011917 181.021881,175.202133 179.256271,172.240402 
	C177.653992,169.552628 177.325500,167.292084 180.478577,164.542099 
	C184.609406,160.939346 187.198013,155.758484 192.324692,152.904053 
	C200.386307,148.415527 205.468613,139.394073 213.933090,136.228333 
	C220.906891,133.620117 228.499969,131.432022 236.198441,130.822769 
	C237.082291,130.752838 238.020920,131.565918 238.955414,131.912186 
	C243.073395,133.438019 246.299042,136.704376 251.082474,137.185074 
	C253.795502,137.457718 255.816132,140.367172 256.184631,143.345444 
	C257.110413,150.827774 260.044586,158.187302 257.501495,165.925735 
	C256.859711,167.878693 258.270569,169.323853 260.005554,170.342224 
	C267.117188,174.516571 271.976868,181.190048 277.869598,186.707748 
	C280.656555,189.317337 283.212158,190.773209 287.145477,190.002151 
	C289.871368,189.467804 292.823090,189.485199 295.586151,189.876160 
	C300.157318,190.522949 302.057831,195.424789 299.208588,199.004547 
	C296.358490,202.585358 291.255920,203.422287 288.676422,207.745514 
	C287.982727,208.908173 284.093445,207.008377 281.599121,207.958740 
	C277.762939,209.420380 277.951019,205.860825 276.762299,203.951675 
	C276.355591,203.298462 275.472015,202.942154 274.533630,202.250519 
M217.238983,176.130890 
	C219.300156,179.863724 223.714767,181.806015 225.388855,179.283203 
	C227.755020,175.717468 230.925049,174.544479 234.568497,173.534317 
	C235.706924,173.218704 236.492996,172.299683 236.807022,171.050262 
	C237.407990,168.659348 239.079590,167.191223 240.981430,165.700455 
	C246.889389,161.069519 247.189484,155.342316 241.951370,150.023987 
	C241.282639,149.345001 241.099152,148.644180 241.009659,147.842285 
	C240.658783,144.698517 238.332962,143.711578 235.768417,143.441193 
	C229.852768,142.817474 224.184509,142.798035 220.379639,148.846283 
	C219.130524,150.831879 216.661942,152.077652 214.679688,153.566849 
	C212.776657,154.996521 211.378525,156.722015 210.323486,158.892517 
	C207.232300,165.251892 207.831070,166.392395 214.835968,166.382996 
	C215.181534,169.458359 216.015045,172.457153 217.238983,176.130890 
z"/>
<path fill="#000000" opacity="1.000000" stroke="none" 
	d="
M606.056702,795.011475 
	C613.201050,802.257385 612.290161,810.133606 603.506470,814.630798 
	C597.675720,817.616028 591.777527,821.035767 584.728088,820.350769 
	C583.202698,820.202515 581.766724,820.607239 580.457336,821.461060 
	C574.400757,825.409973 567.611572,827.571533 560.618103,828.861206 
	C556.714661,829.580994 553.097107,832.819519 548.718079,830.556702 
	C548.361755,830.372681 547.475952,830.917725 546.994751,831.315674 
	C540.195190,836.937317 534.591797,834.944092 531.362915,826.593201 
	C528.738892,819.806519 527.636658,812.538330 524.345825,805.996643 
	C522.997253,803.316101 523.595398,800.798279 526.590088,800.002319 
	C529.334412,799.273010 530.898865,800.966370 531.102295,803.867126 
	C531.287354,806.507324 532.605286,808.948792 532.418030,811.697998 
	C532.307434,813.322937 533.079346,814.908997 534.990051,814.588013 
	C537.489258,814.168274 536.946167,811.914001 536.276123,810.615723 
	C534.960205,808.065247 534.500671,805.273865 533.461792,802.711670 
	C532.249268,799.721252 532.566895,797.840271 535.563782,796.838440 
	C538.632446,795.812744 542.180542,793.939819 544.207031,798.297119 
	C545.569885,801.227478 547.218506,803.972656 547.495300,807.521301 
	C547.902588,812.742859 552.777466,813.534790 556.804016,815.259277 
	C558.920593,811.764526 557.266357,808.193542 555.993958,806.124756 
	C551.818481,799.336121 553.142395,791.205566 549.696533,784.328125 
	C548.475281,781.890808 547.362000,779.184692 547.295898,776.265808 
	C547.254272,774.426636 546.804016,772.308350 548.750061,771.346558 
	C550.552979,770.455566 552.249207,771.498657 553.609070,772.863770 
	C554.080627,773.337036 554.536560,773.837097 555.205811,773.613159 
	C558.875671,767.661560 552.841736,764.311584 551.544067,759.695435 
	C551.313354,758.874634 550.306580,758.600159 549.430115,759.027344 
	C548.352173,759.552734 548.385803,760.606262 548.324219,761.610229 
	C548.215454,763.384827 548.666077,765.601379 546.162476,766.027039 
	C543.288330,766.515564 544.232544,763.444336 543.123474,762.434875 
	C539.840576,759.446838 539.786194,755.590271 539.140381,751.671265 
	C538.370300,746.997742 532.264038,743.591431 527.719055,744.968445 
	C525.540649,745.628357 523.409973,745.682922 521.322876,745.185059 
	C515.984131,743.911438 513.714600,736.878723 517.331726,732.927856 
	C518.970520,731.137939 520.735840,731.948914 522.149963,733.300598 
	C524.217285,735.276428 525.745605,735.147339 527.372803,732.720337 
	C529.851746,729.023010 534.325012,727.998474 537.939941,726.491272 
	C546.906006,722.753113 556.322266,720.022278 566.016785,718.606018 
	C570.101013,718.009338 570.487122,721.156494 571.072815,723.942566 
	C571.628967,726.588684 571.538208,728.570679 568.117432,729.602234 
	C558.524292,732.495117 557.110413,735.805664 558.765930,745.461304 
	C560.736938,756.957581 566.716187,766.717773 571.131592,777.177002 
	C573.292175,782.295105 574.779541,787.770325 575.882812,793.223328 
	C576.284607,795.209106 576.570374,797.273438 577.713867,798.722290 
	C579.499268,800.984497 581.225769,802.908020 580.700134,806.166931 
	C580.483093,807.512329 581.625122,809.045593 583.269653,809.483948 
	C585.228149,810.005981 585.773621,808.456360 586.532288,807.133423 
	C588.409241,803.860535 590.270874,800.778320 586.559204,797.332581 
	C585.497803,796.347229 585.199402,794.340820 584.939026,792.739563 
	C584.569946,790.469116 584.071716,787.831116 586.374878,786.329773 
	C589.188782,784.495667 589.693604,788.226196 591.527100,788.907227 
	C592.621948,788.908203 592.824463,788.037476 593.052002,787.267700 
	C594.217957,783.323242 597.080750,781.066528 600.887085,782.014954 
	C604.536194,782.924255 604.900879,786.941406 604.943604,790.080933 
	C604.967041,791.799866 604.853821,793.289673 606.056702,795.011475 
z"/>
<path fill="#000000" opacity="1.000000" stroke="none" 
	d="
M73.144943,406.176392 
	C70.088661,403.482697 69.759262,399.631989 67.792442,396.629181 
	C67.429512,396.075104 67.479828,394.670227 67.910736,394.263794 
	C73.829636,388.681335 71.033150,381.045929 72.420265,374.462067 
	C74.337029,365.364136 76.809563,356.540558 80.350647,347.983887 
	C80.661064,347.233795 81.148163,346.448578 81.770699,345.952728 
	C87.543526,341.354431 93.930458,337.525696 99.059509,332.116577 
	C99.259651,331.905548 99.686478,331.781647 99.987541,331.812653 
	C109.477287,332.790161 119.507660,331.402802 126.993080,339.806671 
	C137.255646,351.328369 142.945877,363.838348 137.795761,379.467896 
	C136.567673,383.194885 137.882980,385.865112 141.485840,387.606812 
	C146.815674,390.183350 152.474197,389.930634 158.115860,389.812347 
	C160.655060,389.759125 161.923813,387.994110 162.474411,385.695892 
	C163.271667,382.368134 165.105728,379.743103 167.336609,377.160919 
	C169.654755,374.477661 172.000076,374.632080 174.923431,375.568115 
	C177.975616,376.545410 178.264862,378.786285 178.377701,381.441162 
	C178.535324,385.149536 177.832809,388.688354 176.903076,392.234192 
	C174.849274,400.066864 172.574463,407.851105 171.819000,415.969147 
	C171.415512,420.304993 168.380936,423.823639 168.046829,428.302582 
	C167.876938,430.580322 165.517792,430.432526 163.596756,429.846527 
	C157.461914,427.975159 153.898911,422.449097 154.686386,415.974518 
	C155.409454,410.029297 154.395462,408.903381 148.725586,407.500153 
	C136.214493,404.403839 123.823357,400.806580 111.270386,397.901611 
	C103.256882,396.047180 95.173546,394.484650 87.156578,392.599304 
	C83.542747,391.749420 82.067528,394.589417 81.306274,397.914459 
	C80.354988,402.069580 78.804695,405.976410 73.144943,406.176392 
M119.016579,352.560303 
	C108.736893,343.626282 103.963097,347.157806 95.760185,354.833771 
	C91.472519,358.846008 91.992111,364.466278 89.492958,368.974945 
	C86.996979,373.477844 88.609978,375.888580 93.193565,378.055786 
	C99.657288,381.111969 106.840073,379.698944 113.329903,382.442841 
	C116.404839,383.742889 121.434410,383.778809 121.914017,379.278046 
	C122.846077,370.531342 125.732773,361.315521 119.016579,352.560303 
z"/>
<path fill="#000000" opacity="1.000000" stroke="none" 
	d="
M311.018555,113.996353 
	C310.805054,114.970352 310.476501,115.935219 310.398315,116.919952 
	C310.090393,120.798248 308.651245,123.770271 304.300537,124.013885 
	C300.023224,124.253395 299.614105,119.949425 299.247253,117.779030 
	C298.562439,113.727730 297.724701,110.441597 294.634125,107.368347 
	C292.175690,104.923676 295.158508,95.437775 298.247223,92.971199 
	C304.722626,87.800102 312.424225,86.045540 320.324158,84.911057 
	C322.174866,84.645279 323.758820,84.122093 325.458466,83.360970 
	C334.879242,79.142227 344.397675,75.433937 354.716797,73.516800 
	C358.707306,72.775429 362.451538,70.989914 366.742188,71.647163 
	C368.516876,71.919014 370.328247,72.287361 370.837463,73.963493 
	C372.220337,78.515755 375.299408,82.479248 375.403564,87.474876 
	C375.463257,90.338043 376.357086,92.966576 377.928436,95.426094 
	C378.898651,96.944740 379.695465,98.672081 380.121490,100.415352 
	C380.636688,102.523476 379.966339,104.533463 377.705505,105.266296 
	C375.751343,105.899719 374.118439,105.287811 373.415344,103.051811 
	C373.128296,102.139084 372.781921,101.129005 371.108154,100.871597 
	C371.489899,104.806740 371.088165,108.331352 366.491669,109.743469 
	C363.886536,110.543816 361.943237,110.460999 360.561646,107.929741 
	C358.908081,104.900276 356.737610,102.160133 356.807831,98.339424 
	C356.853851,95.835594 348.829956,89.033752 346.551575,89.486191 
	C343.738525,90.044815 343.755829,92.289871 344.974640,94.117409 
	C351.652832,104.130844 351.918030,116.280731 356.052826,127.141785 
	C356.808289,129.126236 357.491486,132.402695 354.892639,133.948654 
	C352.291443,135.496017 350.857697,132.625931 349.082489,131.329803 
	C346.250336,136.495483 350.743683,147.450882 356.328156,149.137558 
	C358.107666,147.631516 356.908905,146.318848 356.228027,144.775940 
	C355.474396,143.068222 355.221191,140.995773 357.437256,140.080490 
	C359.778961,139.113312 360.125732,140.988876 360.579132,142.684067 
	C361.024780,144.350250 362.163513,145.591797 363.584991,146.549026 
	C364.990479,147.495468 365.361084,148.820923 365.243774,150.447525 
	C364.642059,158.790833 369.154663,162.727234 376.945312,160.369736 
	C381.296844,159.052917 384.655060,160.908630 387.367035,163.527756 
	C390.269257,166.330627 386.513184,169.717697 387.047516,172.990616 
	C387.237000,174.151215 385.204315,174.851624 384.338165,173.940170 
	C380.333588,169.726074 377.992645,171.755142 374.348755,175.033554 
	C371.672424,177.441483 367.452393,178.909042 363.731781,180.128128 
	C356.088287,182.632553 348.673553,185.895401 340.441284,186.594162 
	C335.075500,187.049622 334.091644,186.754272 333.920319,181.169418 
	C333.875244,179.699966 333.267853,178.209030 334.045319,176.668152 
	C335.324738,175.032394 337.432983,176.009277 339.091888,175.225082 
	C346.106628,171.909012 347.683807,167.321884 345.423065,159.783646 
	C342.612122,150.410919 339.425110,141.265793 334.778015,132.626007 
	C333.377258,130.021790 333.133728,126.927589 332.382324,124.063377 
	C330.576935,117.181488 328.183105,110.395149 324.104462,104.453545 
	C322.994354,102.836403 323.637848,101.232346 323.119049,99.714630 
	C322.459808,97.786125 321.564026,95.735184 319.265350,95.668816 
	C317.326874,95.612846 316.721375,97.550026 316.121002,99.110497 
	C314.922882,102.224503 314.661499,105.208427 317.058411,108.003304 
	C319.134735,110.424324 319.431458,113.410339 319.328003,116.465584 
	C319.273773,118.067474 318.903564,119.560860 317.115417,119.916367 
	C315.418854,120.253662 314.863037,118.858910 314.368988,117.601334 
	C313.810974,116.180855 313.204803,114.821800 311.275452,113.729515 
	C310.691528,111.607841 310.888153,109.752632 310.142273,108.428185 
	C309.019257,106.434067 307.376160,103.895248 304.860809,107.453262 
	C307.013550,109.740707 309.016052,111.868530 311.018555,113.996353 
M345.599152,124.354317 
	C347.961761,123.956779 348.452209,123.335602 347.450562,120.977669 
	C346.537659,118.828682 345.295258,116.778358 345.673889,114.374924 
	C346.304474,110.371895 343.203522,107.363350 342.961334,103.564842 
	C342.894653,102.519104 341.710693,101.097206 339.276123,102.619347 
	C343.836212,108.868423 341.903137,116.973984 345.599152,124.354317 
M356.562073,158.396790 
	C357.082672,159.293259 357.698456,160.033463 358.896088,159.818222 
	C359.776947,155.740585 359.776947,155.740585 357.114136,153.525681 
	C356.035004,154.811951 356.322968,156.320007 356.562073,158.396790 
z"/>
<path fill="#000000" opacity="1.000000" stroke="none" 
	d="
M754.646606,516.246826 
	C744.456543,513.444946 742.593872,514.966614 740.649170,522.570435 
	C738.604248,530.565735 731.779358,533.248291 727.255798,528.345093 
	C724.608032,525.474976 725.260864,521.988281 726.059326,518.865295 
	C728.639587,508.773956 731.241760,498.710236 732.848938,488.392822 
	C733.404785,484.824402 735.250366,481.513092 735.841003,477.852478 
	C736.156616,475.896698 737.769104,475.485229 739.729553,475.874969 
	C746.562622,477.233368 749.830200,481.800323 749.060486,489.130585 
	C748.414124,495.286407 750.421204,497.789337 756.592102,498.721130 
	C765.653198,500.089355 774.825317,501.795013 782.918396,505.886475 
	C787.590149,508.248291 792.176575,507.515167 796.554260,508.820953 
	C803.154663,510.789764 810.157776,510.837708 816.552551,513.540771 
	C820.734314,515.308350 822.090576,512.446655 822.544739,509.254517 
	C823.098938,505.358551 825.548828,502.739532 827.953308,500.105927 
	C829.962524,497.905243 832.198059,498.686066 832.933228,501.213470 
	C833.638733,503.638702 834.326965,505.945374 835.753357,508.048462 
	C836.433044,509.050629 836.661804,510.516876 835.848328,511.364014 
	C830.084961,517.365845 833.079224,525.203308 831.492188,532.074829 
	C828.720154,544.076904 827.445129,556.275513 816.238708,564.619446 
	C812.882751,567.118225 809.302612,569.375366 805.925293,571.861450 
	C801.649902,575.008545 796.568115,572.317688 791.857971,572.747070 
	C788.691223,573.035767 785.287109,570.822021 782.005127,569.681702 
	C781.079346,569.360107 779.743164,569.117615 779.386353,568.428955 
	C775.284302,560.509949 766.994812,555.132507 765.122375,546.013000 
	C764.033264,540.708679 764.284119,535.085266 765.501587,529.727173 
	C767.919800,519.084778 766.140808,516.675354 754.646606,516.246826 
M816.949951,534.701843 
	C818.297058,529.720764 814.210510,528.489990 811.193176,527.570007 
	C802.688049,524.976746 793.634338,524.478882 785.346985,520.830933 
	C783.181519,519.877747 780.513611,520.763306 780.826233,523.664001 
	C781.674377,531.534302 780.872620,539.162415 778.753967,546.730469 
	C778.144104,548.908936 779.058838,551.061890 780.855591,551.901184 
	C784.326599,553.522583 787.439636,555.843689 790.900757,557.298340 
	C798.068726,560.310913 812.430603,551.247437 812.656555,543.402710 
	C812.762146,539.735962 814.298279,537.534180 816.949951,534.701843 
z"/>
<path fill="#000000" opacity="1.000000" stroke="none" 
	d="
M238.673798,688.295288 
	C238.232712,691.099976 239.364258,692.496826 241.444000,693.850464 
	C244.200089,695.644409 246.727386,697.893311 249.028610,700.261902 
	C254.540588,705.935242 260.333710,703.852295 265.993683,700.941956 
	C269.116547,699.336304 269.628510,696.094116 269.699127,692.744141 
	C269.936218,681.497375 273.014709,679.921326 282.794983,685.923889 
	C288.728729,689.565613 292.571106,695.584045 298.491547,699.441956 
	C301.360443,701.311401 298.959442,705.608765 297.548431,708.635132 
	C296.234619,711.453064 293.731873,711.999084 291.246277,711.068665 
	C284.992401,708.727783 279.417053,709.452759 274.029694,713.443237 
	C272.519287,714.561951 270.327057,714.830322 268.401733,715.301331 
	C265.807892,715.935852 264.442291,716.490417 263.432983,719.957458 
	C262.282104,723.910706 257.751953,727.012817 253.136292,728.204285 
	C251.301941,728.677795 249.647888,728.609314 248.991058,730.896545 
	C248.558777,732.401794 247.072388,733.032715 245.575256,733.523987 
	C241.850235,734.746338 238.834732,736.853027 236.549652,740.197144 
	C233.945801,744.007629 229.230530,745.117981 225.485901,747.146851 
	C220.722290,749.727844 217.352600,754.103699 212.067581,756.042542 
	C209.149414,757.113159 207.294693,761.596924 203.248489,759.220093 
	C198.956467,756.698975 196.871170,750.168030 198.593719,745.677124 
	C202.229355,736.198608 206.398666,726.950867 210.484360,717.658386 
	C214.976990,707.440247 220.515381,697.660461 223.830246,686.921326 
	C224.199829,685.723999 225.196625,684.664551 226.065598,683.685913 
	C232.971680,675.908875 232.973419,667.658508 227.722061,659.110535 
	C226.214340,656.656250 227.024200,654.687622 228.489578,652.718445 
	C230.052292,650.618469 232.086197,649.839233 234.627243,650.720642 
	C242.108398,653.315308 248.700119,657.524170 254.290726,662.973022 
	C257.690826,666.286804 255.540573,670.982300 254.803497,674.855652 
	C254.257141,677.726685 251.497604,678.173218 248.339142,677.612671 
	C244.075226,676.855896 240.374283,681.243347 238.673798,688.295288 
M225.517670,730.019531 
	C229.265625,726.328735 233.106018,722.786072 238.413467,721.423157 
	C240.542389,720.876465 242.139496,719.682007 241.825287,717.259460 
	C241.204926,712.476196 238.898895,708.571106 235.163239,705.519287 
	C234.009079,704.576416 232.647491,704.135742 231.679306,705.509033 
	C227.999588,710.728027 224.738770,716.273254 224.446091,722.786621 
	C224.326630,725.444824 224.369019,727.599792 222.011490,729.271240 
	C221.103180,729.915222 220.408676,730.992798 221.262970,732.476868 
	C223.136520,733.259094 224.195663,732.080383 225.517670,730.019531 
z"/>
<path fill="#000000" opacity="1.000000" stroke="none" 
	d="
M698.109375,178.927612 
	C693.648438,188.682343 688.639221,197.726929 684.627441,207.322830 
	C681.810913,214.059708 679.796997,221.255508 675.658325,227.554260 
	C671.758728,233.489059 671.265686,239.940506 676.122864,246.017807 
	C678.226868,248.650406 677.118835,250.866470 674.944275,252.992355 
	C672.836243,255.053192 670.921875,256.004852 667.926453,254.435654 
	C662.213989,251.443069 656.771790,248.158051 651.565552,244.291473 
	C646.302734,240.382828 649.554260,235.727188 649.661316,231.503128 
	C649.736511,228.533707 652.565796,227.413361 655.667480,227.755478 
	C660.188660,228.254211 665.645691,220.578491 666.080750,216.456940 
	C666.453613,212.924225 662.253296,212.138000 661.177795,209.692383 
	C661.364624,207.191971 663.842346,207.627487 665.472107,205.203613 
	C659.208374,206.372864 655.134399,203.141769 650.881226,200.323242 
	C650.754517,200.239273 650.557373,200.262100 650.393250,200.234070 
	C644.250244,199.185074 634.359924,207.308197 634.317200,213.444748 
	C634.305603,215.108459 634.494751,216.793243 634.294678,218.432098 
	C633.786255,222.597809 631.115540,224.054886 627.217102,222.554779 
	C621.145752,220.218506 615.220764,217.787964 611.971008,211.482590 
	C611.341431,210.261139 609.944824,209.158432 608.645020,208.609299 
	C604.185547,206.725281 604.014404,203.419876 605.295959,199.555298 
	C606.685364,195.365341 609.864868,193.490509 613.862000,194.909973 
	C624.030334,198.520996 631.538696,192.841080 637.863831,187.011795 
	C644.199341,181.172989 651.406738,176.959106 658.401733,172.327667 
	C661.728027,170.125275 665.241760,168.407990 667.823914,165.186783 
	C669.829834,162.684372 672.913330,161.493637 675.627075,159.886169 
	C676.339111,159.464386 677.267639,159.320923 677.851196,158.783188 
	C683.510620,153.568726 691.424866,151.914032 697.009094,146.601639 
	C698.653076,145.037704 700.036438,145.969376 701.392456,147.046997 
	C705.975525,150.689209 708.258911,157.210434 704.851440,162.649521 
	C701.657959,167.747101 700.750549,173.412781 698.109375,178.927612 
M670.225281,181.841415 
	C664.232605,183.949509 660.103333,186.680862 662.985107,194.405869 
	C664.334534,198.023010 666.710632,199.368393 669.570251,200.369614 
	C672.360901,201.346725 673.057007,198.562485 674.079407,196.772858 
	C674.808228,195.497131 675.141541,193.963211 675.995911,192.796997 
	C679.916138,187.445801 678.281067,179.897034 683.392761,174.876663 
	C680.888550,172.072891 679.001038,171.633652 677.047607,175.397079 
	C675.696899,177.999405 674.163513,180.702484 670.225281,181.841415 
z"/>
<path fill="#000000" opacity="1.000000" stroke="none" 
	d="
M426.174988,60.576641 
	C432.062836,60.870571 437.545563,60.353085 443.008057,61.559856 
	C446.383911,62.305649 448.284576,64.469795 449.585449,67.092735 
	C450.917358,69.778275 450.324310,72.195663 446.894409,73.317993 
	C441.233978,75.170181 440.332642,77.832169 439.649414,83.989487 
	C438.932190,90.453278 438.928558,96.890091 439.493103,103.214882 
	C440.213409,111.284431 437.274597,118.805367 437.290741,126.722084 
	C437.312256,137.259750 440.170471,144.161453 450.527008,149.416367 
	C460.841400,154.649933 476.937439,145.294724 475.133148,132.975754 
	C473.408875,121.203178 474.628601,109.557701 474.626831,97.846519 
	C474.625946,91.795563 476.341644,85.633286 473.904907,79.618530 
	C473.004639,77.396332 472.133484,75.382721 469.926422,74.117409 
	C466.339691,72.061150 466.016449,68.214333 466.249908,64.912178 
	C466.487152,61.556374 470.338928,62.536449 472.527435,61.441540 
	C479.978729,57.713699 486.474670,61.939491 493.282898,63.273987 
	C495.705597,63.748867 498.204315,65.192780 498.168793,68.206367 
	C498.138245,70.796913 496.824219,73.334488 494.342987,74.129135 
	C490.326202,75.415573 489.181702,79.036606 489.078247,81.903320 
	C488.656586,93.584969 486.798645,105.298180 489.617432,117.013489 
	C490.418335,120.342094 487.404999,123.880058 488.369751,127.599915 
	C489.748260,132.915115 488.055695,138.053726 487.737122,143.281097 
	C487.484741,147.422134 485.647400,150.105103 482.972443,152.685150 
	C480.217621,155.342224 478.029999,158.753479 475.188263,161.034134 
	C469.543213,165.564590 462.595795,167.057144 455.222839,166.251236 
	C447.392517,165.395355 440.134979,162.526581 434.567261,157.383942 
	C429.628784,152.822449 425.616638,147.106323 426.253601,139.192978 
	C426.643311,134.351669 425.340515,129.306747 424.338654,124.447975 
	C423.801788,121.844429 423.652374,119.483742 424.987030,117.236877 
	C427.189758,113.528763 425.658997,109.776978 425.710785,105.977470 
	C425.826050,97.518387 425.019257,89.013069 426.353516,80.550423 
	C426.921021,76.950890 424.976929,73.839035 421.664429,72.492424 
	C418.064667,71.029053 415.909088,69.109932 416.932220,65.078423 
	C417.964844,61.009632 421.140747,60.350559 424.756897,60.627415 
	C425.086670,60.652664 425.422333,60.600849 426.174988,60.576641 
z"/>
<path fill="#000000" opacity="1.000000" stroke="none" 
	d="
M487.074615,837.438354 
	C486.949554,843.224243 481.790924,846.529846 474.726196,845.171265 
	C470.908325,844.437073 467.166016,844.168579 463.342285,844.353333 
	C459.624725,844.532959 456.978790,842.609070 454.892609,839.881470 
	C452.602539,836.887329 453.661102,833.839355 457.224426,832.555176 
	C463.250641,830.383240 464.627869,827.599304 464.416962,821.004150 
	C464.273041,816.504028 465.203400,811.965942 465.700653,807.450073 
	C466.028046,804.476562 465.479645,801.528259 464.539856,798.842712 
	C463.725525,796.515503 464.353027,794.806274 464.904266,792.681152 
	C467.595581,782.306335 469.038879,771.943604 462.210999,762.381958 
	C456.475250,754.349792 444.910278,753.307983 436.555237,758.266235 
	C428.920471,762.797058 427.680084,770.175049 429.084595,776.282104 
	C432.196259,789.811829 428.425781,802.960266 429.125580,816.268677 
	C429.389160,821.281006 429.540588,826.134827 432.695190,829.834900 
	C435.077759,832.629456 435.983765,835.884155 437.605621,838.893127 
	C439.222382,841.892639 437.767426,843.539795 434.784180,844.341492 
	C426.944214,846.448425 419.324188,844.259338 411.742249,842.879333 
	C409.426880,842.457886 406.218750,840.874939 406.212280,837.853027 
	C406.206665,835.225464 407.940704,832.752869 410.798492,831.926270 
	C413.325714,831.195251 414.204895,829.354614 414.544495,827.142822 
	C416.180359,816.488586 416.747772,805.463013 415.917908,795.039246 
	C415.171936,785.668884 417.113770,776.549927 415.950226,767.249878 
	C415.092346,760.393372 417.788788,753.960510 424.299622,750.019470 
	C424.579773,749.849854 424.940247,749.631653 425.032074,749.358398 
	C427.533569,741.914429 435.063354,741.815491 440.610901,739.327942 
	C446.460815,736.704712 453.226318,739.097107 458.519470,741.401917 
	C467.114777,745.144531 475.026642,750.955078 477.542603,760.956665 
	C478.783569,765.890137 478.801300,771.126709 479.441467,776.217407 
	C480.000519,780.662964 480.769012,785.100891 478.619232,789.375000 
	C478.478973,789.653748 478.461975,790.038086 478.503326,790.358337 
	C480.027588,802.163940 477.737305,813.897949 477.861115,825.674011 
	C477.899506,829.329590 480.005280,831.949768 483.072662,833.515137 
	C484.792633,834.392883 486.297485,835.157471 487.074615,837.438354 
z"/>
<path fill="#000000" opacity="1.000000" stroke="none" 
	d="
M543.555969,107.368988 
	C543.552002,103.315445 545.061768,102.423019 548.650208,103.439140 
	C552.735779,104.596039 553.736938,103.268044 552.363892,99.247444 
	C550.704773,94.389160 554.161133,91.536377 557.361450,90.202667 
	C562.357117,88.120750 567.239685,85.606300 572.629578,84.357994 
	C581.027466,82.413017 588.468140,84.012711 594.953552,89.571625 
	C597.671509,91.901306 600.465088,93.539513 604.048401,94.339760 
	C611.232117,95.944054 613.474731,101.068329 610.684204,107.778328 
	C608.754517,112.418503 608.918823,117.818016 605.244324,121.877243 
	C603.324341,123.998215 601.813599,126.668312 598.493713,126.156624 
	C595.224670,125.652779 595.266602,122.788506 594.320862,120.243927 
	C592.968140,116.604355 592.801514,112.795631 591.624695,109.177429 
	C589.964783,104.073929 580.702087,95.912827 576.531189,97.976456 
	C570.936890,100.744301 564.151855,101.340134 559.622253,106.199303 
	C552.882751,113.429161 547.865845,121.972008 545.141235,131.225143 
	C542.616455,139.800049 539.816833,149.123352 544.856018,157.970886 
	C546.467773,160.800720 547.924316,163.833298 549.893005,166.350830 
	C552.085815,169.154999 555.492493,170.359222 559.307434,169.670044 
	C564.269775,168.773560 568.815979,166.868607 573.119995,164.308899 
	C576.984863,162.010406 578.501221,154.863388 575.620178,151.621094 
	C573.492004,149.225967 569.543518,147.500534 571.938538,143.487656 
	C574.264282,139.590881 578.433472,137.883377 582.737122,138.629898 
	C589.869263,139.867020 596.208069,143.460876 601.736572,147.949799 
	C606.259766,151.622498 604.967102,156.251022 599.240479,157.166199 
	C592.060364,158.313644 589.490173,163.463028 587.458191,169.170776 
	C585.524231,174.603348 584.068665,180.194458 582.818665,185.850464 
	C581.582092,191.445984 577.942688,193.249252 573.260681,189.875198 
	C567.182312,185.494919 560.437073,184.968750 553.542358,184.399826 
	C551.109497,184.199066 548.964111,183.458038 547.119629,181.963760 
	C543.157166,178.753708 539.240723,175.484772 535.376038,172.157928 
	C534.658569,171.540298 533.882751,170.578659 533.791992,169.707291 
	C532.650818,158.745773 529.350098,147.660889 531.834900,136.794556 
	C534.149597,126.672318 536.418213,116.136009 543.555969,107.368988 
z"/>
<path fill="#000000" opacity="1.000000" stroke="none" 
	d="
M323.342041,822.267395 
	C316.649628,820.804993 311.045410,818.133667 306.254364,813.762329 
	C304.814697,812.448853 303.102051,811.593567 301.022034,811.114380 
	C293.103271,809.289978 291.230255,804.411560 293.687408,796.619019 
	C295.358398,791.319519 297.284180,786.358459 300.561554,781.923767 
	C301.624237,780.485840 302.603302,778.584045 304.846832,779.174622 
	C307.037170,779.751221 308.658875,781.199402 309.225372,783.494080 
	C310.297882,787.838440 311.664001,792.158203 312.185516,796.573547 
	C312.517487,799.384521 313.758148,801.217224 315.663330,802.864563 
	C320.814911,807.318726 328.425629,807.953918 334.052917,804.494080 
	C334.894653,803.976624 335.828156,803.106995 336.666565,803.164734 
	C343.535553,803.637390 346.222046,798.510681 348.960205,793.832092 
	C352.299469,788.126465 356.194855,782.693115 358.274445,776.297546 
	C361.444794,766.547241 364.166107,756.488037 359.072723,746.908264 
	C356.763428,742.564819 355.021729,736.698364 348.272278,735.698425 
	C342.653839,734.866089 331.042603,738.346313 328.341736,743.322144 
	C326.326996,747.034058 326.637512,751.202698 329.176666,755.100464 
	C330.726868,757.480103 334.738342,759.630127 331.781342,763.182251 
	C329.289062,766.176086 326.112549,767.641235 321.644562,766.713623 
	C314.615662,765.254272 308.626251,762.180359 302.950348,757.964355 
	C300.638092,756.246887 300.206787,754.428162 300.712524,751.977966 
	C301.254425,749.352417 302.999725,747.659241 305.559296,747.785583 
	C310.204865,748.014709 312.360901,745.529236 314.110565,741.689453 
	C316.448059,736.559631 319.395264,731.720215 319.902252,725.898865 
	C320.057648,724.114685 320.728241,722.334534 321.392639,720.642700 
	C324.252441,713.360840 326.118896,712.710632 332.766815,716.764526 
	C336.678711,719.150085 340.785461,721.355042 345.412384,720.550781 
	C351.971649,719.410645 356.798950,722.819397 361.265564,726.342163 
	C368.840637,732.316467 373.226471,740.286072 373.045563,750.250977 
	C372.870392,759.896729 371.654022,769.268799 369.254700,778.770569 
	C367.144928,787.125610 363.345154,794.524963 359.113861,801.377991 
	C353.558197,810.375793 345.770844,817.984314 334.492615,820.414429 
	C330.935852,821.180847 327.560760,822.836304 323.342041,822.267395 
z"/>
<path fill="#000000" opacity="1.000000" stroke="none" 
	d="
M736.364502,326.496399 
	C732.855530,327.456512 730.338013,328.674042 729.063599,332.253448 
	C727.649048,336.226501 717.698120,335.853668 714.896851,331.679230 
	C711.133301,326.070892 706.374451,320.988220 704.482483,314.301025 
	C703.285828,310.071533 699.468384,307.834229 697.504395,304.187439 
	C693.217163,296.226624 688.722229,288.375824 684.212158,280.537628 
	C681.845398,276.424377 682.924133,272.358521 684.535034,268.557678 
	C686.006836,265.085114 689.583069,264.876282 692.155945,267.747681 
	C702.274109,279.039642 700.048584,276.726074 713.200928,269.978882 
	C723.727844,264.578522 733.699341,258.049133 743.678162,251.647919 
	C748.103821,248.809021 752.222168,245.487259 756.721985,242.689362 
	C761.068542,239.986740 761.962708,234.960938 759.510315,230.514511 
	C758.055115,227.876144 754.970459,225.288376 758.647888,222.273178 
	C762.014954,219.512405 768.306885,220.178589 770.897949,223.605804 
	C775.896729,230.217987 780.749146,236.945160 783.514404,244.903900 
	C783.889832,245.984421 784.436340,247.136932 785.234192,247.918655 
	C792.158081,254.701920 786.854980,261.449402 785.245239,268.198944 
	C785.182739,268.460876 784.792725,268.681061 784.510986,268.844055 
	C784.233582,269.004578 783.899719,269.067474 782.972046,269.384796 
	C781.082397,265.255615 777.506104,262.267120 774.588684,258.711945 
	C773.509949,257.397339 772.440674,256.001953 770.498047,256.365173 
	C767.003540,257.018524 763.087708,257.011292 760.137024,258.677521 
	C751.666077,263.460999 742.824585,267.693481 735.354980,274.163757 
	C731.062805,277.881744 725.578003,279.889801 720.447083,281.955780 
	C716.056946,283.723450 713.450867,286.861725 710.751953,290.046234 
	C708.872314,292.264069 708.942749,295.009399 710.718933,297.895721 
	C714.096924,303.384888 717.049927,309.144196 720.015320,314.876221 
	C722.923218,320.496887 725.444519,321.071564 730.316711,317.012665 
	C733.556763,314.313446 737.489868,312.824036 741.257568,311.109589 
	C743.897644,309.908203 746.377625,310.887695 747.552917,313.476959 
	C748.729675,316.069305 749.452942,319.025208 746.232544,320.959259 
	C743.106018,322.836884 739.893188,324.570862 736.364502,326.496399 
z"/>
<path fill="#000000" opacity="1.000000" stroke="none" 
	d="
M156.801193,592.125366 
	C155.433807,587.392395 157.595139,584.109131 163.334366,581.791382 
	C168.164642,579.840759 173.148987,578.653076 175.901947,573.110474 
	C177.768600,569.352356 186.337708,569.543335 188.665207,573.394226 
	C190.988342,577.237976 195.039978,579.889709 196.480225,583.995300 
	C200.192841,594.578430 208.803192,602.295898 212.614792,612.831848 
	C214.389572,617.737732 219.218048,621.132812 220.543304,626.522156 
	C221.448090,630.201660 221.831863,633.757263 219.544037,637.048523 
	C217.334671,640.226990 214.253860,640.406067 211.621414,637.623535 
	C211.507553,637.503174 211.424500,637.354187 211.314072,637.230103 
	C204.136154,629.166260 200.513290,628.372925 192.129410,634.722717 
	C187.969421,637.873413 183.521927,640.205750 179.052429,642.713745 
	C170.399994,647.569153 161.738129,652.450989 154.219009,659.079224 
	C152.914551,660.229126 150.940628,660.595032 149.328293,661.424805 
	C143.853821,664.242310 141.871811,670.901184 144.922943,676.213257 
	C146.253067,678.528992 148.281708,681.235657 145.242203,683.168762 
	C142.427155,684.959045 138.839264,686.515137 135.588730,683.635986 
	C128.631882,677.473816 124.406281,669.436707 120.523567,661.188477 
	C120.171791,660.441223 119.958633,659.565125 119.429153,658.974854 
	C113.201218,652.031555 117.135422,644.963806 119.173149,637.944641 
	C119.308189,637.479553 120.184792,637.229736 120.987083,636.701660 
	C123.048813,638.913086 124.353210,641.521484 126.688194,643.430237 
	C134.199203,649.570190 138.478104,650.296631 147.064713,645.191711 
	C158.648041,638.305420 170.058426,631.128845 181.591400,624.156860 
	C184.688293,622.284668 188.481720,621.639954 190.992767,618.702271 
	C194.022232,615.158142 195.229935,611.841736 192.846848,606.994141 
	C189.841202,600.880371 185.916031,595.299316 183.176849,589.055176 
	C181.404739,585.015625 177.921066,584.226562 174.815414,587.422791 
	C171.916595,590.406128 167.962112,591.303467 164.709015,593.552185 
	C162.356247,595.178528 159.266953,594.871094 156.801193,592.125366 
z"/>
<path fill="#000000" opacity="1.000000" stroke="none" 
	d="
M781.517578,374.596191 
	C789.440552,374.613647 795.684021,378.197510 799.899963,383.757172 
	C804.316650,389.581604 804.088928,396.706848 800.914429,403.536194 
	C797.164856,411.602600 788.357361,416.067139 779.990662,413.963409 
	C770.646362,411.613861 762.348511,401.537628 763.786682,393.184723 
	C765.466553,383.427307 769.110901,377.247162 781.517578,374.596191 
z"/>
<path fill="#000000" opacity="1.000000" stroke="none" 
	d="
M138.467316,502.921875 
	C142.526810,512.208313 139.908127,519.916565 133.720184,526.578430 
	C126.181068,534.694885 109.174896,531.480896 105.422318,520.477722 
	C105.853615,519.119690 108.734161,519.085693 107.641251,516.749268 
	C106.869713,515.099854 105.542183,515.121704 103.931343,514.993896 
	C101.099907,514.769165 100.790497,512.431580 100.904114,510.150085 
	C101.589676,496.383331 115.454323,488.011810 127.894531,493.809235 
	C132.158829,495.796478 136.169052,498.050751 138.467316,502.921875 
z"/>
<path fill="#000000" opacity="1.000000" stroke="none" 
	d="
M774.119324,175.916245 
	C776.359680,178.265656 778.130676,179.890518 778.005798,183.634903 
	C777.911865,186.452850 781.137573,189.532089 783.228394,192.229233 
	C785.263123,194.854080 787.252258,197.454391 788.073486,201.002625 
	C782.739502,196.308167 778.811768,190.269119 773.889099,185.189743 
	C768.955139,180.098663 763.130127,175.577240 760.036682,168.711182 
	C766.726685,166.245636 769.033020,167.499161 774.119324,175.916245 
z"/>
<path fill="#000000" opacity="1.000000" stroke="none" 
	d="
M739.518921,149.487732 
	C736.837097,146.911621 733.700745,145.211365 732.698608,141.533203 
	C742.119995,148.454041 751.191956,155.746964 759.156250,164.589340 
	C757.345642,166.889252 756.094360,165.335632 754.640137,164.311798 
	C748.882385,160.257935 745.464478,153.839294 739.518921,149.487732 
z"/>
<path fill="#000000" opacity="1.000000" stroke="none" 
	d="
M50.296730,560.625366 
	C46.088634,560.708313 47.651386,557.070251 46.806805,555.200134 
	C45.368145,552.014648 43.683598,548.419373 45.502125,543.242859 
	C49.403221,549.196716 49.415432,554.969543 50.296730,560.625366 
z"/>
<path fill="#000000" opacity="1.000000" stroke="none" 
	d="
M510.835510,479.645721 
	C517.218323,480.595947 518.870056,483.176636 517.948669,488.839050 
	C517.258606,493.080078 514.222534,497.219269 517.120911,501.784363 
	C517.778259,502.819702 517.162598,503.939362 515.875977,504.606323 
	C508.330292,508.517944 504.995850,514.625244 505.176910,523.247375 
	C505.267395,527.556335 503.088776,531.808960 504.304169,536.366333 
	C504.746490,538.024963 504.870667,539.960876 506.423401,540.652588 
	C511.316223,542.832092 514.269287,547.052856 517.838928,550.674133 
	C520.782776,553.660522 524.174622,554.992126 527.981323,551.794189 
	C529.032837,550.910828 530.324097,550.525818 531.715942,551.215759 
	C532.753296,552.583557 532.691040,554.073120 531.820557,555.399170 
	C530.367065,557.613464 530.157104,559.895508 530.299927,562.517761 
	C530.433105,564.963074 529.707336,567.870178 527.306091,568.983582 
	C523.302612,570.839844 521.316650,574.625671 518.231262,577.323181 
	C517.077454,578.331970 516.235352,579.696899 516.398560,581.281311 
	C517.134827,588.429382 513.099731,593.971985 510.255920,599.918030 
	C507.643372,605.380554 507.221283,610.936584 509.285034,616.693970 
	C511.911957,624.022705 514.449707,631.383667 516.981018,638.746216 
	C517.814087,641.169434 517.793457,643.763855 515.045898,644.669678 
	C508.820068,646.722290 506.280304,652.067932 503.391083,657.058716 
	C501.927399,659.587158 499.982574,660.891541 497.299500,661.737183 
	C489.251648,664.273804 481.341309,664.596130 473.477417,661.060486 
	C472.455353,660.600952 471.164001,660.244507 470.105652,660.436707 
	C456.140350,662.972290 441.673920,662.725037 428.201721,668.035461 
	C424.483582,669.501038 421.535522,672.165710 418.381378,674.179077 
	C416.463562,673.179565 416.808777,671.873047 417.231720,670.561646 
	C419.673615,662.990234 422.420929,655.485535 419.977356,647.288635 
	C419.655670,646.209473 420.243774,644.559448 420.937622,643.528687 
	C424.015961,638.955750 423.287933,634.316711 421.311737,629.729187 
	C419.750183,626.104126 419.837860,622.346008 419.407776,618.553589 
	C418.546967,610.963196 418.316620,602.937256 412.127380,597.104675 
	C410.397156,595.474243 410.256622,593.380493 410.860382,591.567505 
	C412.174225,587.622681 411.421112,583.470642 412.993439,579.400391 
	C414.290436,576.043030 410.936249,572.396179 409.616821,568.932678 
	C407.780396,564.111938 405.417603,559.536133 405.772675,554.175232 
	C405.843079,553.112183 405.517639,552.126099 404.438232,551.734680 
	C402.953522,551.196228 401.497223,551.966919 400.974304,553.068115 
	C397.933533,559.471802 390.942017,559.041687 385.861755,561.803894 
	C382.739197,563.501648 382.154175,560.038147 382.779358,558.097656 
	C384.230164,553.594421 382.019104,550.378174 379.831085,547.028198 
	C377.930389,544.118103 375.679047,542.347717 371.744598,542.242188 
	C364.019867,542.035095 356.881836,534.409180 360.574188,526.016418 
	C363.057343,520.372131 361.986084,513.860229 361.041840,507.793121 
	C360.653198,505.296112 360.604767,503.019867 361.988312,501.128967 
	C364.625366,497.524689 364.046692,494.038910 362.546967,490.280701 
	C360.487305,485.119324 361.598083,480.530182 366.551880,478.509033 
	C372.235748,476.190002 373.641693,471.438660 373.308258,466.907135 
	C372.701477,458.660583 375.355194,451.088196 376.641174,443.275604 
	C377.908020,435.579071 379.502136,427.591370 379.319305,420.147797 
	C378.986755,406.610107 382.571106,393.638763 382.740173,380.295135 
	C382.760651,378.678406 382.957306,376.658264 383.908173,375.528839 
	C388.121429,370.524567 385.758759,365.862549 383.580994,361.153839 
	C382.749451,359.355804 381.399139,357.756836 382.122986,355.562775 
	C385.125580,346.461823 381.711090,338.283478 377.275391,330.944458 
	C371.186096,320.869385 366.175140,310.614441 364.394287,298.881409 
	C363.845245,295.264099 362.930908,291.606964 358.088165,291.072815 
	C356.198730,290.864410 355.812378,288.970459 355.500641,287.236572 
	C355.025330,284.592621 355.700439,281.896271 357.041504,280.059570 
	C363.065338,271.809448 366.900452,261.962769 375.024567,255.235596 
	C376.469788,254.038895 377.937836,252.766525 379.828613,252.825424 
	C384.121155,252.959198 387.540955,250.884155 390.847778,248.670441 
	C393.574341,246.845139 395.809174,246.405319 399.072479,247.981964 
	C405.229156,250.956543 406.131439,252.321655 402.262848,258.497986 
	C400.259460,261.696381 400.511169,264.248474 402.099731,267.284729 
	C403.674133,270.293915 405.473297,270.163422 407.523102,267.997009 
	C408.539612,266.922668 409.194153,265.507599 410.202515,264.423492 
	C417.226929,256.871490 425.724701,257.080597 434.623047,260.034058 
	C436.323944,260.598602 437.763458,260.971497 439.300568,259.819519 
	C440.570343,258.867859 442.018707,258.540924 443.554352,259.037598 
	C451.439087,261.587708 456.789001,258.564728 458.801086,250.457260 
	C459.116608,249.185913 459.466980,247.326401 460.799988,247.235794 
	C465.085419,246.944534 469.233398,244.659760 473.096680,244.785233 
	C477.394684,244.924866 481.664856,244.140320 485.925415,244.627014 
	C487.958466,244.859253 489.330994,243.695374 490.903687,242.732239 
	C495.312256,240.032394 498.583160,241.512466 500.596375,246.063705 
	C502.440399,250.232559 502.369446,254.836365 504.312744,258.945190 
	C505.438293,261.324921 506.848541,262.477692 509.551544,262.732544 
	C514.110657,263.162384 518.458740,263.891907 522.783264,266.259277 
	C527.092712,268.618439 527.065491,271.800751 525.983704,274.866028 
	C522.296753,285.313263 518.155151,295.638000 508.090027,301.933594 
	C504.014374,304.482819 501.660004,308.762360 497.514404,311.522064 
	C491.866760,315.281677 492.722656,329.959320 497.932648,334.388092 
	C498.563141,334.924072 499.693420,335.530853 499.674225,336.072296 
	C499.433990,342.850098 505.812775,347.997131 504.282990,355.071747 
	C503.884460,356.914642 504.091461,358.745544 505.507812,360.209076 
	C507.600952,362.371948 507.966766,364.835754 506.841980,367.575562 
	C506.376953,368.708344 506.381836,369.814941 506.866272,370.963989 
	C509.744537,377.790344 508.726685,381.749908 502.904694,386.527496 
	C498.547272,390.103302 497.946503,394.113586 502.131134,396.167297 
	C510.781769,400.412689 511.627960,408.091217 510.308746,415.627380 
	C509.336151,421.183746 508.977722,427.021454 506.752747,432.420074 
	C505.062561,436.521149 502.245331,438.184662 497.945435,438.433868 
	C492.478699,438.750671 487.035126,439.491150 481.587708,440.103363 
	C479.757355,440.309082 477.715820,440.522919 477.417358,442.876282 
	C477.136383,445.091461 478.976135,445.859406 480.501190,446.937744 
	C485.956421,450.795105 491.339386,454.336884 491.730164,462.399414 
	C492.173889,471.553528 501.855621,479.846130 510.835510,479.645721 
z"/>
<path fill="#000000" opacity="1.000000" stroke="none" 
	d="
M285.139282,268.215332 
	C281.761444,269.719635 280.319214,273.618530 276.501495,274.065186 
	C276.555725,270.553406 282.935974,264.372498 288.853119,262.013916 
	C289.438934,265.140289 286.528992,266.076782 285.139282,268.215332 
z"/>
<path fill="#000000" opacity="1.000000" stroke="none" 
	d="
M365.811859,217.928741 
	C368.505341,215.724884 371.293427,214.326279 375.381226,214.516693 
	C372.453094,217.923935 369.455597,219.027374 365.811859,217.928741 
z"/>
<path fill="#000000" opacity="1.000000" stroke="none" 
	d="
M259.683594,287.978333 
	C261.398682,286.495514 262.905212,285.315094 264.411743,284.134674 
	C264.056763,287.539307 262.391083,289.947662 259.905609,291.883331 
	C258.203033,290.628632 259.067230,289.439880 259.683594,287.978333 
z"/>
</svg>